<svg width="65" height="63" viewBox="0 0 65 63" fill="none" xmlns="http://www.w3.org/2000/svg">
<path d="M9.56663 2.77588C4.19091 6.10082 0.91094 11.8593 0.794596 18.1777L0.475774 35.2866L0.470013 35.6141L0 60.8695L16.0933 50.731L16.1994 50.664L16.3435 42.8539L16.521 33.3324L16.668 25.4087L16.7977 18.4761C16.8208 17.2887 17.5512 16.66 17.985 16.3908C18.4202 16.123 19.3078 15.7489 20.3802 16.2613L48.9418 29.8704L48.9606 20.1437L48.9738 12.4093L49.2051 12.2638L27.2648 1.80958C24.7244 0.599491 22.0049 -7.24792e-05 19.294 6.86646e-05C15.9148 0.000209808 12.5493 0.932358 9.56663 2.77588Z" fill="url(#paint0_linear_210_284)"/>
<path d="M49.205 12.2638L48.9737 12.4092L48.9605 20.1437L48.9417 29.8704L48.9272 37.7212L48.9156 44.2144C48.914 45.4034 48.1938 46.0422 47.7644 46.3187C47.3352 46.5951 46.4518 46.9822 45.372 46.4904L16.5209 33.3323L16.3435 42.8538L16.1993 50.6639L16.0932 50.731L38.7304 61.0542C44.48 63.6765 51.0911 63.2051 56.4099 59.791C61.7287 56.3772 64.9112 50.5664 64.9229 44.2451L65 2.313L49.205 12.2638Z" fill="url(#paint1_linear_210_284)"/>
<defs>
<linearGradient id="paint0_linear_210_284" x1="-6.54021" y1="53.0553" x2="41.5198" y2="3.17307" gradientUnits="userSpaceOnUse">
<stop stop-color="#FF00FF"/>
<stop offset="1" stop-color="#00FFFF"/>
</linearGradient>
<linearGradient id="paint1_linear_210_284" x1="21.6416" y1="61.4745" x2="73.5738" y2="10.2256" gradientUnits="userSpaceOnUse">
<stop stop-color="#FCEE21"/>
<stop offset="1" stop-color="#FF00FF"/>
</linearGradient>
</defs>
</svg>
