<svg width="82" height="26" viewBox="0 0 82 26" fill="none" xmlns="http://www.w3.org/2000/svg">
<path d="M42.9836 20.6C42.7743 20.6967 42.4925 20.8137 42.1383 20.9503C41.784 21.0872 41.3976 21.2038 40.9792 21.3005C40.5603 21.3972 40.1255 21.4453 39.675 21.4453C39.1273 21.4453 38.6202 21.3448 38.1536 21.145C37.6864 20.9444 37.3121 20.6358 37.0306 20.2192C36.7486 19.8026 36.6079 19.2658 36.6079 18.6083V10.7224H34.9175V8.66957H36.6079V4.51585H39.2646V8.66957H42.0177V10.7224H39.2646V17.7337C39.2965 18.1662 39.4373 18.4861 39.687 18.6941C39.9365 18.9023 40.2463 19.0062 40.6168 19.0062C40.9872 19.0062 41.3451 18.9377 41.6917 18.8009C42.0376 18.6642 42.2749 18.5636 42.404 18.4989L42.9836 20.6Z" fill="white"/>
<path d="M52.5707 8.66888L55.5895 12.9587L55.8068 13.3663L56.0243 12.9587L58.9947 8.66888H61.8687L57.3285 14.9239L61.917 21.2031H59.0673L56.0243 16.9371L55.8068 16.5537L55.6136 16.9371L52.5707 21.2031H49.6968L54.2853 14.9481L49.7451 8.66888H52.5707Z" fill="white"/>
<path d="M81.3095 21.2031H78.6771V14.2086C78.6771 13.0312 78.4839 12.1758 78.0976 11.6425C77.7111 11.1093 77.1474 10.8425 76.4069 10.8425C75.8914 10.8425 75.3804 10.9731 74.8735 11.2342C74.3663 11.4952 73.9153 11.8397 73.521 12.2671C73.1263 12.6945 72.8327 13.1931 72.6393 13.7629V21.2031H69.9829V8.66888H72.398V11.1792C72.7198 10.621 73.1383 10.1424 73.6538 9.74371C74.169 9.34521 74.7564 9.03426 75.4168 8.81084C76.0768 8.58743 76.7771 8.47572 77.5179 8.47572C78.2746 8.47572 78.9024 8.6116 79.4017 8.88259C79.9005 9.15377 80.287 9.52467 80.5608 9.99509C80.8345 10.4655 81.0277 11.0077 81.1405 11.6218C81.253 12.2361 81.3095 12.8858 81.3095 13.5716V21.2031Z" fill="white"/>
<path d="M3.95961 1.14789C1.73478 2.52415 0.377172 4.9073 0.328836 7.52224L0.196958 14.6034L0.194681 14.7389L0 25.1914L6.66056 20.9954L6.70472 20.9677L6.76428 17.7354L6.83774 13.7944L6.89865 10.5151L6.95212 7.64575C6.96202 7.15439 7.26422 6.89425 7.44368 6.78273C7.6237 6.67198 7.99117 6.51707 8.43496 6.72926L20.2559 12.3616L20.2637 8.33597L20.2693 5.13491L20.365 5.07476L11.2845 0.748063C10.2331 0.247378 9.10747 -0.000775449 7.98564 -0.000775449C6.58673 -0.000775449 5.19409 0.384969 3.95961 1.14789" fill="url(#paint0_linear_195_371)"/>
<path d="M20.365 5.073L20.2693 5.13314L20.2638 8.33421L20.256 12.3599L20.2499 15.6093L20.2451 18.2967C20.2451 18.7886 19.9464 19.053 19.7688 19.1675C19.5911 19.2819 19.2255 19.4421 18.7785 19.2385L6.83779 13.7926L6.76434 17.7336L6.70477 20.9659L6.66061 20.9937L16.0298 25.2661C18.4095 26.3514 21.1455 26.1564 23.3469 24.7434C25.5483 23.3306 26.8656 20.9255 26.8703 18.3093L26.9021 0.954488L20.365 5.073Z" fill="url(#paint1_linear_195_371)"/>
<defs>
<linearGradient id="paint0_linear_195_371" x1="-2.70669" y1="21.9574" x2="17.1842" y2="1.31233" gradientUnits="userSpaceOnUse">
<stop stop-color="#FF00FF"/>
<stop offset="1" stop-color="#00FFFF"/>
</linearGradient>
<linearGradient id="paint1_linear_195_371" x1="8.95716" y1="25.4401" x2="30.4506" y2="4.22942" gradientUnits="userSpaceOnUse">
<stop stop-color="#FCEE21"/>
<stop offset="1" stop-color="#FF00FF"/>
</linearGradient>
</defs>
</svg>
