<svg width="87" height="87" viewBox="0 0 87 87" fill="none" xmlns="http://www.w3.org/2000/svg">
<path fill-rule="evenodd" clip-rule="evenodd" d="M12 23.1221L12 23.0867C12 15.3061 18.148 9 25.7337 9L50.0811 9C58.0337 9 64.5182 15.6198 64.5182 23.7769L64.5182 57.5975C64.5182 57.6075 64.5182 57.6175 64.5182 57.6275V57.6611C64.5182 65.4418 58.3701 71.7478 50.7845 71.7478H26.4371C18.4845 71.7478 12 65.128 12 56.9709V23.1503C12 23.1409 12 23.1315 12 23.1221Z" fill="url(#paint0_linear_195_416)"/>
<g opacity="0.5" filter="url(#filter0_f_195_416)">
<rect x="21.9283" y="54.1143" width="32.5749" height="27.4938" rx="5" transform="rotate(-90 21.9283 54.1143)" fill="#40BFFF" fill-opacity="0.5"/>
</g>
<g filter="url(#filter1_b_195_416)">
<path d="M37.2766 23.2529L59.9889 23.2529L76 40.7434V71.9132C76 79.6938 69.852 85.9999 62.2663 85.9999H37.919C29.9663 85.9999 23.4818 79.3801 23.4818 71.223L23.4818 37.4024C23.4818 29.6217 29.6604 23.2529 37.2766 23.2529Z" fill="#B3E5FF" fill-opacity="0.35"/>
<path d="M60.3577 22.9153C60.263 22.8119 60.1292 22.7529 59.9889 22.7529L37.2766 22.7529C29.3717 22.7529 22.9818 29.3584 22.9818 37.4024L22.9818 71.223C22.9818 79.6456 29.6796 86.4999 37.919 86.4999H62.2663C70.14 86.4999 76.5 79.9579 76.5 71.9132V40.7434C76.5 40.6184 76.4532 40.498 76.3688 40.4058L60.3577 22.9153Z" stroke="url(#paint1_linear_195_416)" stroke-linecap="round" stroke-linejoin="round"/>
</g>
<mask id="path-5-inside-1_195_416" fill="white">
<path fill-rule="evenodd" clip-rule="evenodd" d="M49.5092 47.8672H39.1707C37.9167 47.8672 36.8767 48.9339 36.8767 50.2202C36.8767 51.5065 37.9167 52.5418 39.1707 52.5418H49.5092C50.7633 52.5418 51.8032 51.5065 51.8032 50.2202C51.8032 48.9339 50.7633 47.8672 49.5092 47.8672ZM39.1709 68.2274H55.8103C57.0644 68.2274 58.1043 67.1607 58.1043 65.8744C58.1043 64.5881 57.0644 63.5527 55.8103 63.5527H39.1709C37.9168 63.5527 36.8768 64.5881 36.8768 65.8744C36.8768 67.1607 37.9168 68.2274 39.1709 68.2274Z"/>
</mask>
<path fill-rule="evenodd" clip-rule="evenodd" d="M49.5092 47.8672H39.1707C37.9167 47.8672 36.8767 48.9339 36.8767 50.2202C36.8767 51.5065 37.9167 52.5418 39.1707 52.5418H49.5092C50.7633 52.5418 51.8032 51.5065 51.8032 50.2202C51.8032 48.9339 50.7633 47.8672 49.5092 47.8672ZM39.1709 68.2274H55.8103C57.0644 68.2274 58.1043 67.1607 58.1043 65.8744C58.1043 64.5881 57.0644 63.5527 55.8103 63.5527H39.1709C37.9168 63.5527 36.8768 64.5881 36.8768 65.8744C36.8768 67.1607 37.9168 68.2274 39.1709 68.2274Z" fill="url(#paint2_linear_195_416)"/>
<path d="M39.1707 48.2672H49.5092V47.4672H39.1707V48.2672ZM37.2767 50.2202C37.2767 49.1452 38.1471 48.2672 39.1707 48.2672V47.4672C37.6862 47.4672 36.4767 48.7226 36.4767 50.2202H37.2767ZM39.1707 52.1418C38.1402 52.1418 37.2767 51.2882 37.2767 50.2202H36.4767C36.4767 51.7248 37.6932 52.9418 39.1707 52.9418V52.1418ZM49.5092 52.1418H39.1707V52.9418H49.5092V52.1418ZM51.4032 50.2202C51.4032 51.2882 50.5398 52.1418 49.5092 52.1418V52.9418C50.9868 52.9418 52.2032 51.7248 52.2032 50.2202H51.4032ZM49.5092 48.2672C50.5329 48.2672 51.4032 49.1452 51.4032 50.2202H52.2032C52.2032 48.7226 50.9937 47.4672 49.5092 47.4672V48.2672ZM55.8103 67.8274H39.1709V68.6274H55.8103V67.8274ZM57.7043 65.8744C57.7043 66.9494 56.8339 67.8274 55.8103 67.8274V68.6274C57.2948 68.6274 58.5043 67.372 58.5043 65.8744H57.7043ZM55.8103 63.9527C56.8409 63.9527 57.7043 64.8064 57.7043 65.8744H58.5043C58.5043 64.3697 57.2879 63.1527 55.8103 63.1527V63.9527ZM39.1709 63.9527H55.8103V63.1527H39.1709V63.9527ZM37.2768 65.8744C37.2768 64.8064 38.1403 63.9527 39.1709 63.9527V63.1527C37.6933 63.1527 36.4768 64.3697 36.4768 65.8744H37.2768ZM39.1709 67.8274C38.1472 67.8274 37.2768 66.9494 37.2768 65.8744H36.4768C36.4768 67.372 37.6864 68.6274 39.1709 68.6274V67.8274Z" fill="url(#paint3_linear_195_416)" mask="url(#path-5-inside-1_195_416)"/>
<g filter="url(#filter2_bd_195_416)">
<mask id="path-7-inside-2_195_416" fill="white">
<path d="M62.8207 43.2482C64.9526 43.2702 67.9165 43.2796 70.4308 43.2702C71.7185 43.267 72.373 41.6889 71.4799 40.7383C68.2499 37.2935 62.472 31.1286 59.1655 27.6022C58.251 26.6265 56.6512 27.2979 56.6512 28.6501V36.9202C56.6512 40.3901 59.4377 43.2482 62.8207 43.2482Z"/>
</mask>
<path d="M62.8207 43.2482C64.9526 43.2702 67.9165 43.2796 70.4308 43.2702C71.7185 43.267 72.373 41.6889 71.4799 40.7383C68.2499 37.2935 62.472 31.1286 59.1655 27.6022C58.251 26.6265 56.6512 27.2979 56.6512 28.6501V36.9202C56.6512 40.3901 59.4377 43.2482 62.8207 43.2482Z" fill="url(#paint4_linear_195_416)"/>
<path d="M70.4308 43.2702L70.4298 42.8702L70.4293 42.8702L70.4308 43.2702ZM71.4799 40.7383L71.1881 41.0119L71.1884 41.0122L71.4799 40.7383ZM59.1655 27.6022L58.8737 27.8758L58.8737 27.8758L59.1655 27.6022ZM62.8166 43.6482C64.9505 43.6702 67.9163 43.6796 70.4323 43.6702L70.4293 42.8702C67.9167 42.8796 64.9547 42.8702 62.8248 42.8482L62.8166 43.6482ZM70.4317 43.6702C72.0882 43.6661 72.8912 41.6563 71.7714 40.4644L71.1884 41.0122C71.8549 41.7216 71.3488 42.8679 70.4298 42.8702L70.4317 43.6702ZM71.7717 40.4647C68.5388 37.0169 62.7667 30.8582 59.4573 27.3286L58.8737 27.8758C62.1772 31.3991 67.961 37.5702 71.1881 41.0119L71.7717 40.4647ZM59.4574 27.3287C58.2757 26.068 56.2512 26.9634 56.2512 28.6501H57.0512C57.0512 27.6324 58.2262 27.185 58.8737 27.8758L59.4574 27.3287ZM56.2512 28.6501V36.9202H57.0512V28.6501H56.2512ZM56.2512 36.9202C56.2512 40.6014 59.2073 43.6482 62.8207 43.6482V42.8482C59.6682 42.8482 57.0512 40.1788 57.0512 36.9202H56.2512Z" fill="url(#paint5_linear_195_416)" mask="url(#path-7-inside-2_195_416)"/>
</g>
<defs>
<filter id="filter0_f_195_416" x="0.928343" y="0.539368" width="69.4938" height="74.5749" filterUnits="userSpaceOnUse" color-interpolation-filters="sRGB">
<feFlood flood-opacity="0" result="BackgroundImageFix"/>
<feBlend mode="normal" in="SourceGraphic" in2="BackgroundImageFix" result="shape"/>
<feGaussianBlur stdDeviation="10.5" result="effect1_foregroundBlur_195_416"/>
</filter>
<filter id="filter1_b_195_416" x="-1.51819" y="-1.74707" width="102.518" height="112.747" filterUnits="userSpaceOnUse" color-interpolation-filters="sRGB">
<feFlood flood-opacity="0" result="BackgroundImageFix"/>
<feGaussianBlur in="BackgroundImage" stdDeviation="12"/>
<feComposite in2="SourceAlpha" operator="in" result="effect1_backgroundBlur_195_416"/>
<feBlend mode="normal" in="SourceGraphic" in2="effect1_backgroundBlur_195_416" result="shape"/>
</filter>
<filter id="filter2_bd_195_416" x="41.6512" y="12.1396" width="45.2406" height="46.1342" filterUnits="userSpaceOnUse" color-interpolation-filters="sRGB">
<feFlood flood-opacity="0" result="BackgroundImageFix"/>
<feGaussianBlur in="BackgroundImage" stdDeviation="7.5"/>
<feComposite in2="SourceAlpha" operator="in" result="effect1_backgroundBlur_195_416"/>
<feColorMatrix in="SourceAlpha" type="matrix" values="0 0 0 0 0 0 0 0 0 0 0 0 0 0 0 0 0 0 127 0" result="hardAlpha"/>
<feOffset dx="5" dy="5"/>
<feGaussianBlur stdDeviation="5"/>
<feColorMatrix type="matrix" values="0 0 0 0 0.701961 0 0 0 0 0.898039 0 0 0 0 1 0 0 0 0.25 0"/>
<feBlend mode="normal" in2="effect1_backgroundBlur_195_416" result="effect2_dropShadow_195_416"/>
<feBlend mode="normal" in="SourceGraphic" in2="effect2_dropShadow_195_416" result="shape"/>
</filter>
<linearGradient id="paint0_linear_195_416" x1="49.6953" y1="9" x2="49.6953" y2="71.7479" gradientUnits="userSpaceOnUse">
<stop stop-color="#BC94FF"/>
<stop offset="0.0001" stop-color="#B3E5FF"/>
<stop offset="1" stop-color="#40BFFF"/>
</linearGradient>
<linearGradient id="paint1_linear_195_416" x1="31.8418" y1="30.563" x2="72.7606" y2="72.9804" gradientUnits="userSpaceOnUse">
<stop stop-color="white" stop-opacity="0.25"/>
<stop offset="1" stop-color="white" stop-opacity="0"/>
</linearGradient>
<linearGradient id="paint2_linear_195_416" x1="56.5993" y1="51.5438" x2="32.9559" y2="52.3476" gradientUnits="userSpaceOnUse">
<stop stop-color="white"/>
<stop offset="1" stop-color="white" stop-opacity="0.2"/>
</linearGradient>
<linearGradient id="paint3_linear_195_416" x1="40.2558" y1="50.2392" x2="53.1191" y2="66.8495" gradientUnits="userSpaceOnUse">
<stop stop-color="white" stop-opacity="0.25"/>
<stop offset="1" stop-color="white" stop-opacity="0"/>
</linearGradient>
<linearGradient id="paint4_linear_195_416" x1="70.8113" y1="30.0532" x2="53.8328" y2="30.5761" gradientUnits="userSpaceOnUse">
<stop stop-color="white"/>
<stop offset="1" stop-color="white" stop-opacity="0.2"/>
</linearGradient>
<linearGradient id="paint5_linear_195_416" x1="59.0773" y1="29.0193" x2="69.4772" y2="41.1865" gradientUnits="userSpaceOnUse">
<stop stop-color="white" stop-opacity="0.25"/>
<stop offset="1" stop-color="white" stop-opacity="0"/>
</linearGradient>
</defs>
</svg>
