<svg width="97" height="84" viewBox="0 0 97 84" fill="none" xmlns="http://www.w3.org/2000/svg">
<path d="M47.0749 50.5138C46.685 51.3248 46.716 52.279 47.1553 53.0645L53.3978 63.8562C53.9261 64.7711 53.8744 65.9127 53.2666 66.7772C52.6827 67.657 51.6493 68.1168 50.6115 67.9664L38.3443 66.3329C37.9163 66.2721 37.481 66.3152 37.0695 66.4532L36.4388 66.6851C36.2319 66.7984 36.0433 66.9476 35.8868 67.1275L27.5456 76.3688C27.1292 76.8145 26.5851 77.1183 25.9865 77.2347C24.5137 77.4784 23.116 76.4921 22.837 75.012L20.7349 62.6977C20.5676 61.8043 19.9811 61.0491 19.162 60.672L7.78908 55.5441C6.83769 55.1146 6.22008 54.1713 6.20449 53.121C6.18043 52.0765 6.73123 51.1052 7.63727 50.5991L18.5925 44.6526C19.4391 44.2376 20.0167 43.4134 20.1239 42.4695L21.412 30.0523C21.4482 29.773 21.5261 29.4997 21.6484 29.2472L21.7985 29.0058C21.8638 28.8435 21.953 28.6963 22.0629 28.5628L22.2827 28.3756L22.6189 28.0657L23.5987 27.7054C24.5069 27.4752 25.4681 27.7202 26.1557 28.3611L35.1118 36.9579C35.7616 37.5888 36.678 37.8557 37.5601 37.6776L49.7385 35.117C50.7669 34.8984 51.8298 35.279 52.4926 36.0993C53.1376 36.9287 53.2479 38.0586 52.7762 39.0008L47.0749 50.5138Z" fill="url(#paint0_linear_195_394)"/>
<g opacity="0.5" filter="url(#filter0_f_195_394)">
<path d="M36.3484 44.269C31.0221 44.269 26.6993 48.6313 26.6993 54.0042C26.6993 59.379 31.0221 63.7394 36.3484 63.7394C41.6844 63.7394 45.9976 59.379 45.9976 54.0042C45.9976 48.6313 41.6844 44.269 36.3484 44.269Z" fill="#FF00FF"/>
</g>
<g filter="url(#filter1_b_195_394)">
<path d="M75.4783 48.6998C74.4956 49.2722 73.8542 50.2976 73.7613 51.4391L72.7017 67.2723C72.6108 68.614 71.7502 69.7769 70.5006 70.2488C69.2655 70.7539 67.8542 70.4943 66.8694 69.5901L55.127 59.0531C54.72 58.6816 54.2319 58.4139 53.7018 58.2631L52.875 58.0535C52.5774 58.0239 52.2737 58.0451 51.9822 58.1217L36.6861 61.8399C35.9336 62.0091 35.147 61.9373 34.4355 61.6293C32.7151 60.8266 31.9423 58.7848 32.6944 57.0282L39.182 42.5711C39.6373 41.5116 39.554 40.296 38.9593 39.3107L30.625 25.7432C29.9282 24.6077 29.9452 23.172 30.6706 22.0566C31.3831 20.9412 32.6481 20.3161 33.9581 20.4355L49.675 22.0604C50.8583 22.2327 52.0476 21.7815 52.827 20.8664L62.9514 8.73855C63.1867 8.47094 63.4617 8.23956 63.7686 8.0621L64.0969 7.91623C64.2801 7.79251 64.4779 7.70191 64.6878 7.64058L65.051 7.60176L65.6234 7.51778L66.9079 7.84343C68.0252 8.25433 68.8627 9.203 69.1329 10.3711L72.4763 25.8479C72.7138 26.9783 73.4887 27.9176 74.5419 28.3646L89.1533 34.4285C90.3887 34.9381 91.2374 36.1023 91.3548 37.4412C91.447 38.777 90.7649 40.044 89.6036 40.6954L75.4783 48.6998Z" fill="#FF99FF" fill-opacity="0.4"/>
<path d="M73.2 67.308L73.2 67.3076L74.2591 51.4816C74.2592 51.4805 74.2593 51.4793 74.2594 51.4782C74.3401 50.5002 74.8897 49.6235 75.7281 49.1342C75.7289 49.1337 75.7297 49.1332 75.7305 49.1328L89.8488 41.1324C89.8491 41.1322 89.8494 41.132 89.8497 41.1319C91.1788 40.386 91.9586 38.9362 91.8531 37.4085L91.8532 37.4085L91.8524 37.3992C91.7187 35.8757 90.7529 34.548 89.3426 33.9661C89.3424 33.966 89.3421 33.9659 89.3419 33.9658L74.7352 27.9039C74.7347 27.9036 74.7341 27.9034 74.7335 27.9031C73.8324 27.52 73.1687 26.7154 72.9651 25.7465L72.9645 25.7437L69.6211 10.267L69.6211 10.267L69.6195 10.2598C69.3111 8.9268 68.355 7.84308 67.0785 7.37365C67.0622 7.36766 67.0456 7.36252 67.0287 7.35825L65.7442 7.0326C65.6805 7.01643 65.6142 7.01302 65.5492 7.02256L64.9865 7.10512L64.633 7.14291C64.6036 7.14604 64.5746 7.15178 64.5463 7.16006C64.3042 7.2308 64.0723 7.33441 63.8551 7.47539L63.5647 7.60445C63.5486 7.61159 63.533 7.61957 63.5178 7.62836C63.1603 7.83502 62.8441 8.1021 62.5761 8.4069L62.5759 8.40679L62.5677 8.4166L52.4465 20.5407C52.446 20.5413 52.4455 20.5418 52.445 20.5424C51.7755 21.3274 50.7564 21.7124 49.7451 21.5651C49.7382 21.5641 49.7314 21.5633 49.7245 21.5625L34.0075 19.9376L34.0075 19.9376L34.0015 19.937C32.5047 19.8007 31.0623 20.5148 30.2507 21.784C29.4212 23.0608 29.402 24.7041 30.1998 26.0042L30.1999 26.0044L38.5321 39.5685C38.5325 39.5691 38.5328 39.5697 38.5332 39.5702C39.0422 40.4149 39.1145 41.4578 38.7246 42.3683L32.2387 56.8216L32.2386 56.8216L32.2353 56.8295C31.378 58.8315 32.2569 61.1641 34.226 62.0829L34.2259 62.083L34.2388 62.0886C35.0483 62.439 35.9427 62.5204 36.7972 62.3282L36.7972 62.3283L36.8056 62.3263L52.1016 58.6081L52.1016 58.6082L52.1106 58.6058C52.3308 58.5479 52.5624 58.5293 52.7922 58.5483L53.5737 58.7465C54.029 58.877 54.4453 59.1066 54.7913 59.4226L54.7945 59.4254L66.5327 69.9585C66.5335 69.9592 66.5342 69.9599 66.5349 69.9606C67.6598 70.9918 69.2718 71.2897 70.6845 70.7149C72.1137 70.1724 73.0961 68.8416 73.2 67.308Z" stroke="url(#paint1_linear_195_394)" stroke-linecap="round" stroke-linejoin="round"/>
</g>
<defs>
<filter id="filter0_f_195_394" x="6.69931" y="24.269" width="59.2983" height="59.4704" filterUnits="userSpaceOnUse" color-interpolation-filters="sRGB">
<feFlood flood-opacity="0" result="BackgroundImageFix"/>
<feBlend mode="normal" in="SourceGraphic" in2="BackgroundImageFix" result="shape"/>
<feGaussianBlur stdDeviation="10" result="effect1_foregroundBlur_195_394"/>
</filter>
<filter id="filter1_b_195_394" x="5.1152" y="-17.4832" width="111.247" height="112.988" filterUnits="userSpaceOnUse" color-interpolation-filters="sRGB">
<feFlood flood-opacity="0" result="BackgroundImageFix"/>
<feGaussianBlur in="BackgroundImage" stdDeviation="12"/>
<feComposite in2="SourceAlpha" operator="in" result="effect1_backgroundBlur_195_394"/>
<feBlend mode="normal" in="SourceGraphic" in2="effect1_backgroundBlur_195_394" result="shape"/>
</filter>
<linearGradient id="paint0_linear_195_394" x1="9.40925" y1="46.7337" x2="60.948" y2="94.5956" gradientUnits="userSpaceOnUse">
<stop stop-color="#FF99FF"/>
<stop offset="1" stop-color="#FF00FF"/>
</linearGradient>
<linearGradient id="paint1_linear_195_394" x1="43.9876" y1="9.27745" x2="68.9255" y2="66.4429" gradientUnits="userSpaceOnUse">
<stop stop-color="white" stop-opacity="0.25"/>
<stop offset="1" stop-color="white" stop-opacity="0"/>
</linearGradient>
</defs>
</svg>
