<svg width="66" height="82" viewBox="0 0 66 82" fill="none" xmlns="http://www.w3.org/2000/svg">
<path fill-rule="evenodd" clip-rule="evenodd" d="M40.5738 19.9675L23.7272 36.6317L4.00387 24.7033C1.41943 23.14 1.94326 19.2832 4.85474 18.4528L51.4209 5.13863C54.0691 4.3856 56.5175 6.8251 55.7245 9.43926L41.908 55.1484C41.0427 58.0088 37.1617 58.5042 35.5931 55.9502L23.7272 36.6317" fill="url(#paint0_linear_195_421)"/>
<g opacity="0.5" filter="url(#filter0_f_195_421)">
<path fill-rule="evenodd" clip-rule="evenodd" d="M38.1589 23.7171L28.1122 33.655L16.3499 26.5414C14.8087 25.609 15.1211 23.309 16.8574 22.8138L44.6278 14.8737C46.207 14.4246 47.6671 15.8794 47.1942 17.4384L38.9546 44.6977C38.4385 46.4036 36.124 46.699 35.1886 45.1758L28.1122 33.655" fill="#FDB359"/>
</g>
<g filter="url(#filter1_b_195_421)">
<path fill-rule="evenodd" clip-rule="evenodd" d="M47.1365 35.5983L26.3692 56.1407L2.05569 41.4363C-1.13022 39.5091 -0.484474 34.7547 3.10458 33.7311L60.508 17.3184C63.7724 16.3901 66.7906 19.3973 65.8131 22.6199L48.7812 78.9668C47.7144 82.4929 42.9302 83.1035 40.9966 79.9551L26.3692 56.1407" fill="#FEE1BD" fill-opacity="0.35"/>
</g>
<g filter="url(#filter2_b_195_421)">
<rect width="22.3885" height="3.86009" rx="1.93005" transform="matrix(0.713282 -0.700877 0.713282 0.700877 30.2743 49.578)" fill="url(#paint1_linear_195_421)"/>
</g>
<defs>
<filter id="filter0_f_195_421" x="1.35544" y="0.791016" width="59.9292" height="59.3739" filterUnits="userSpaceOnUse" color-interpolation-filters="sRGB">
<feFlood flood-opacity="0" result="BackgroundImageFix"/>
<feBlend mode="normal" in="SourceGraphic" in2="BackgroundImageFix" result="shape"/>
<feGaussianBlur stdDeviation="7" result="effect1_foregroundBlur_195_421"/>
</filter>
<filter id="filter1_b_195_421" x="-24" y="-6.85254" width="114" height="112.852" filterUnits="userSpaceOnUse" color-interpolation-filters="sRGB">
<feFlood flood-opacity="0" result="BackgroundImageFix"/>
<feGaussianBlur in="BackgroundImage" stdDeviation="12"/>
<feComposite in2="SourceAlpha" operator="in" result="effect1_backgroundBlur_195_421"/>
<feBlend mode="normal" in="SourceGraphic" in2="effect1_backgroundBlur_195_421" result="shape"/>
</filter>
<filter id="filter2_b_195_421" x="16.0807" y="19.6788" width="47.1098" height="46.8123" filterUnits="userSpaceOnUse" color-interpolation-filters="sRGB">
<feFlood flood-opacity="0" result="BackgroundImageFix"/>
<feGaussianBlur in="BackgroundImage" stdDeviation="7.5"/>
<feComposite in2="SourceAlpha" operator="in" result="effect1_backgroundBlur_195_421"/>
<feBlend mode="normal" in="SourceGraphic" in2="effect1_backgroundBlur_195_421" result="shape"/>
</filter>
<linearGradient id="paint0_linear_195_421" x1="29.1062" y1="5" x2="29.1062" y2="57.6087" gradientUnits="userSpaceOnUse">
<stop stop-color="#CCCCFF"/>
<stop offset="0.0001" stop-color="#FEE1BD"/>
<stop offset="1" stop-color="#FDB359"/>
</linearGradient>
<linearGradient id="paint1_linear_195_421" x1="20.8012" y1="0.697056" x2="-3.30206" y2="5.25513" gradientUnits="userSpaceOnUse">
<stop stop-color="white"/>
<stop offset="1" stop-color="white" stop-opacity="0.2"/>
</linearGradient>
</defs>
</svg>
