<svg width="86" height="66" viewBox="0 0 86 66" fill="none" xmlns="http://www.w3.org/2000/svg">
<g filter="url(#filter0_b_221_324)">
<path d="M76.4148 28.9797C75.6026 28.0325 74.6233 27.2434 73.5513 26.604C71.2 25.1785 68.438 24.5902 65.6826 24.9015C65.6002 24.6935 65.4757 24.4788 65.3661 24.2776C65.2586 24.073 65.1051 23.6384 64.9321 23.3509L64.4603 22.6781C64.233 22.2892 63.9597 21.942 63.6568 21.5978C63.6422 21.5454 63.6127 21.4794 63.5642 21.4067L63.464 21.347C62.6654 20.4078 61.7415 19.6034 60.6907 18.9329L60.5038 18.8214C60.0281 18.5377 59.5347 18.2871 59.0154 18.0718L58.8115 17.9502C58.262 17.7122 57.6824 17.5277 57.0875 17.4031C49.5007 15.6892 43.101 21.1974 41.4018 28.3351C40.6398 32.046 40.7138 35.8687 41.6112 39.5102C43.0005 44.6677 44.9238 49.6373 47.361 54.3607L47.6381 54.8967L48.2172 54.8944C53.5542 54.7851 58.8512 54.1223 64.0434 52.9135C67.7143 51.9969 71.1519 50.2458 74.0715 47.8219C79.5779 42.9551 81.4586 34.7514 76.4148 28.9797Z" fill="url(#paint0_linear_221_324)"/>
</g>
<g opacity="0.5" filter="url(#filter1_f_221_324)">
<path d="M65.2553 31.5399C64.7428 30.9421 64.1248 30.4442 63.4484 30.0407C61.9646 29.1412 60.2217 28.7699 58.4829 28.9664C58.4309 28.8351 58.3524 28.6996 58.2832 28.5727C58.2154 28.4435 58.1185 28.1693 58.0093 27.9879L57.7116 27.5633C57.5681 27.3179 57.3957 27.0988 57.2046 26.8816C57.1954 26.8485 57.1768 26.8069 57.1461 26.761L57.0829 26.7233C56.5789 26.1307 55.9959 25.6231 55.3328 25.1999L55.2149 25.1296C54.9147 24.9505 54.6033 24.7924 54.2756 24.6565L54.147 24.5798C53.8002 24.4296 53.4345 24.3132 53.0591 24.2346C48.2715 23.153 44.233 26.6289 43.1608 31.1331C42.6799 33.4748 42.7266 35.8871 43.2929 38.1851C44.1696 41.4397 45.3833 44.5757 46.9212 47.5563L47.0961 47.8946L47.4615 47.8931C50.8294 47.8242 54.172 47.4059 57.4485 46.6431C59.765 46.0647 61.9343 44.9597 63.7767 43.4301C67.2514 40.3589 68.4382 35.1821 65.2553 31.5399Z" fill="#FF00FF"/>
</g>
<g filter="url(#filter2_b_221_324)">
<path d="M71.6423 11.7019C71.445 11.5091 71.2141 11.3543 70.9656 11.2343C70.4202 10.9659 69.8007 10.8898 69.2001 11.0117C69.1779 10.9675 69.1463 10.9226 69.1183 10.8805C69.0906 10.8375 69.0484 10.7448 69.0047 10.6849L68.8877 10.5459C68.8301 10.4646 68.7632 10.3935 68.6898 10.3236C68.6856 10.3123 68.6778 10.2984 68.6657 10.2833L68.6425 10.2721C68.4484 10.0808 68.2294 9.92159 67.985 9.79429L67.9416 9.77337C67.8314 9.72011 67.7179 9.67449 67.5994 9.63713L67.5521 9.6143C67.4265 9.57254 67.2953 9.54314 67.1619 9.52722C65.4582 9.29669 64.1563 10.6331 63.921 12.2374C63.8254 13.069 63.916 13.9092 64.1844 14.6935C64.5906 15.802 65.1107 16.8589 65.7391 17.8516L65.8106 17.9642L65.938 17.9525C67.1109 17.8252 68.2643 17.5768 69.3839 17.2102C70.1743 16.9374 70.8971 16.4854 71.4928 15.8953C72.6104 14.7173 72.865 12.8749 71.6423 11.7019Z" fill="url(#paint1_linear_221_324)"/>
</g>
<g filter="url(#filter3_b_221_324)">
<mask id="path-4-outside-1_221_324" maskUnits="userSpaceOnUse" x="-1.1434" y="-1.21223" width="68.903" height="66.3329" fill="black">
<rect fill="white" x="-1.1434" y="-1.21223" width="68.903" height="66.3329"/>
<path d="M44.9018 2.91936C43.0957 2.64163 41.2567 2.69686 39.4589 3.00513C35.4939 3.65583 31.8785 5.6202 29.1341 8.57215C28.8435 8.42032 28.4998 8.30096 28.1857 8.1824C27.8706 8.05815 27.2839 7.72328 26.8169 7.56954L25.65 7.27279C25.0257 7.05835 24.3906 6.93344 23.7258 6.83994C23.6594 6.79579 23.5635 6.75086 23.4401 6.71648L23.272 6.74531C21.4886 6.46367 19.6962 6.44953 17.8919 6.7034L17.5785 6.75714C16.7808 6.89393 15.9953 7.08415 15.2151 7.33778L14.8732 7.3964C14.0378 7.65363 13.2207 7.99834 12.444 8.42379C2.41952 13.7113 0.637625 25.8537 5.61153 35.347C8.33149 40.1676 12.0822 44.3206 16.5684 47.4939C23.0529 51.8766 29.9469 55.546 37.1721 58.4573L37.9927 58.7871L38.6301 58.2365C44.4199 53.0642 49.6342 47.3185 54.2089 41.0687C57.3836 36.5816 59.4998 31.3934 60.3981 25.9523C61.8088 15.3642 56.0123 4.52135 44.9018 2.91936Z"/>
</mask>
<path d="M44.9018 2.91936C43.0957 2.64163 41.2567 2.69686 39.4589 3.00513C35.4939 3.65583 31.8785 5.6202 29.1341 8.57215C28.8435 8.42032 28.4998 8.30096 28.1857 8.1824C27.8706 8.05815 27.2839 7.72328 26.8169 7.56954L25.65 7.27279C25.0257 7.05835 24.3906 6.93344 23.7258 6.83994C23.6594 6.79579 23.5635 6.75086 23.4401 6.71648L23.272 6.74531C21.4886 6.46367 19.6962 6.44953 17.8919 6.7034L17.5785 6.75714C16.7808 6.89393 15.9953 7.08415 15.2151 7.33778L14.8732 7.3964C14.0378 7.65363 13.2207 7.99834 12.444 8.42379C2.41952 13.7113 0.637625 25.8537 5.61153 35.347C8.33149 40.1676 12.0822 44.3206 16.5684 47.4939C23.0529 51.8766 29.9469 55.546 37.1721 58.4573L37.9927 58.7871L38.6301 58.2365C44.4199 53.0642 49.6342 47.3185 54.2089 41.0687C57.3836 36.5816 59.4998 31.3934 60.3981 25.9523C61.8088 15.3642 56.0123 4.52135 44.9018 2.91936Z" fill="#FF99FF" fill-opacity="0.35"/>
<path d="M39.4589 3.00513L39.6227 3.99164L39.6298 3.99042L39.4589 3.00513ZM29.1341 8.57215L28.6718 9.45791C29.0715 9.66669 29.561 9.58292 29.8674 9.2533L29.1341 8.57215ZM28.1857 8.1824L27.82 9.11225C27.8246 9.11404 27.8291 9.1158 27.8337 9.11753L28.1857 8.1824ZM26.8169 7.56954L27.1283 6.6201C27.1064 6.61289 27.0843 6.60644 27.062 6.60076L26.8169 7.56954ZM25.65 7.27279L25.3264 8.21814C25.3522 8.22702 25.3784 8.23484 25.4049 8.24157L25.65 7.27279ZM23.7258 6.83994L23.1727 7.67197C23.2976 7.75502 23.4396 7.80898 23.5881 7.82987L23.7258 6.83994ZM23.4401 6.71648L23.7072 5.75355C23.5646 5.71383 23.415 5.70619 23.2693 5.73119L23.4401 6.71648ZM23.272 6.74531L23.1176 7.73274C23.2254 7.74977 23.3353 7.74905 23.4429 7.73061L23.272 6.74531ZM17.8919 6.7034L17.7508 5.71347C17.7408 5.71487 17.7309 5.71641 17.7211 5.7181L17.8919 6.7034ZM17.5785 6.75714L17.7494 7.74244L17.5785 6.75714ZM15.2151 7.33778L15.3859 8.32307C15.4334 8.31493 15.4802 8.30338 15.526 8.28849L15.2151 7.33778ZM14.8732 7.3964L14.7024 6.4111C14.66 6.41837 14.6182 6.42835 14.5771 6.44099L14.8732 7.3964ZM12.444 8.42379L12.9121 9.30807C12.9168 9.30562 12.9214 9.30314 12.926 9.30062L12.444 8.42379ZM5.61153 35.347L4.72553 35.8095C4.73035 35.8187 4.73531 35.8278 4.74041 35.8368L5.61153 35.347ZM16.5684 47.4939L15.9915 48.3096C15.9973 48.3137 16.0032 48.3177 16.009 48.3217L16.5684 47.4939ZM37.1721 58.4573L36.7995 59.3843L36.8002 59.3846L37.1721 58.4573ZM37.9927 58.7871L37.6208 59.7145C37.9683 59.8542 38.3645 59.7884 38.6476 59.5439L37.9927 58.7871ZM38.6301 58.2365L39.285 58.9933C39.2892 58.9897 39.2933 58.986 39.2974 58.9823L38.6301 58.2365ZM54.2089 41.0687L55.0166 41.6598C55.0197 41.6555 55.0229 41.6511 55.026 41.6468L54.2089 41.0687ZM60.3981 25.9523L61.385 26.1167C61.3867 26.1065 61.3882 26.0962 61.3896 26.0859L60.3981 25.9523ZM45.0523 1.93131C43.1256 1.63504 41.1772 1.69589 39.2881 2.01983L39.6298 3.99042C41.3361 3.69782 43.0657 3.64821 44.7514 3.90741L45.0523 1.93131ZM39.2952 2.01864C35.107 2.70595 31.2927 4.78036 28.4007 7.89101L29.8674 9.2533C32.4644 6.46004 35.8807 4.6057 39.6227 3.99161L39.2952 2.01864ZM29.5963 7.6864C29.2362 7.49829 28.8104 7.35018 28.5377 7.24726L27.8337 9.11753C28.1893 9.25175 28.4507 9.34236 28.6718 9.45791L29.5963 7.6864ZM28.5514 7.25254C28.4408 7.20894 28.2763 7.12474 27.9934 6.98768C27.7494 6.8694 27.4322 6.72011 27.1283 6.6201L26.5054 8.51899C26.6686 8.57271 26.8782 8.66773 27.123 8.78638C27.3291 8.88625 27.6155 9.03161 27.82 9.11225L28.5514 7.25254ZM27.062 6.60076L25.8951 6.304L25.4049 8.24157L26.5718 8.53833L27.062 6.60076ZM25.9736 6.32744C25.2654 6.08419 24.561 5.94812 23.8635 5.85001L23.5881 7.82987C24.2201 7.91877 24.7859 8.03252 25.3264 8.21814L25.9736 6.32744ZM24.2788 6.00791C24.1099 5.89558 23.9136 5.81108 23.7072 5.75355L23.173 7.67942C23.191 7.68442 23.2003 7.68835 23.2015 7.68891C23.2021 7.68915 23.1999 7.68824 23.1954 7.6858C23.191 7.6834 23.1832 7.67897 23.1727 7.67197L24.2788 6.00791ZM23.2693 5.73119L23.1012 5.76001L23.4429 7.73061L23.6109 7.70178L23.2693 5.73119ZM23.4265 5.75788C21.5443 5.46064 19.6523 5.44592 17.7508 5.71347L18.0331 7.69333C19.7401 7.45314 21.4329 7.46669 23.1176 7.73274L23.4265 5.75788ZM17.7211 5.7181L17.4077 5.77184L17.7494 7.74244L18.0628 7.6887L17.7211 5.7181ZM17.4077 5.77184C16.5651 5.91632 15.7327 6.11775 14.9042 6.38706L15.526 8.28849C16.258 8.05055 16.9965 7.87154 17.7494 7.74244L17.4077 5.77184ZM15.0443 6.35248L14.7024 6.4111L15.0441 8.3817L15.3859 8.32307L15.0443 6.35248ZM14.5771 6.44099C13.6773 6.71807 12.7979 7.0891 11.962 7.54696L12.926 9.30062C13.6435 8.90759 14.3984 8.5892 15.1693 8.35181L14.5771 6.44099ZM11.9759 7.53951C1.33142 13.1541 -0.427937 25.9735 4.72553 35.8095L6.49754 34.8845C1.70319 25.7339 3.50762 14.2686 12.9121 9.30807L11.9759 7.53951ZM4.74041 35.8368C7.53288 40.786 11.3838 45.0504 15.9915 48.3096L17.1454 46.6783C12.7805 43.5908 9.13011 39.5493 6.48266 34.8571L4.74041 35.8368ZM16.009 48.3217C22.5517 52.7437 29.5083 56.4465 36.7995 59.3843L37.5448 57.5302C30.3856 54.6456 23.5541 51.0095 17.1278 46.6662L16.009 48.3217ZM36.8002 59.3846L37.6208 59.7145L38.3646 57.8597L37.544 57.5299L36.8002 59.3846ZM38.6476 59.5439L39.285 58.9933L37.9752 57.4797L37.3377 58.0303L38.6476 59.5439ZM39.2974 58.9823C45.1392 53.7637 50.4006 47.9661 55.0166 41.6598L53.4011 40.4775C48.8679 46.6708 43.7006 52.3648 37.9627 57.4906L39.2974 58.9823ZM55.026 41.6468C58.2889 37.0349 60.4625 31.705 61.385 26.1167L59.4111 25.7879C58.5371 31.0818 56.4782 36.1283 53.3918 40.4906L55.026 41.6468ZM61.3896 26.0859C62.8503 15.123 56.8514 3.63254 45.043 1.92992L44.7607 3.9088C55.1733 5.41016 60.7673 15.6053 59.4065 25.8186L61.3896 26.0859Z" fill="url(#paint2_linear_221_324)" mask="url(#path-4-outside-1_221_324)"/>
</g>
<g filter="url(#filter4_bd_221_324)">
<path d="M52.5014 19.582C52.6236 20.7905 51.7881 21.895 50.6246 22.1274C49.9869 22.1758 49.3394 21.9982 48.8563 21.5849C48.3733 21.1715 48.0675 20.5788 48.0087 19.9201L47.9934 19.8322C47.6485 17.8503 46.114 16.2717 44.168 15.9057C42.8971 15.6893 42.0428 14.493 42.2348 13.2334C42.4552 11.969 43.6291 11.1215 44.8677 11.3201C48.7902 12.076 51.837 15.2575 52.4427 19.2446L52.5014 19.582Z" fill="url(#paint3_linear_221_324)"/>
<path d="M48.208 19.9027L48.2072 19.8944L48.2058 19.8862L48.1905 19.7983C47.8317 17.7363 46.235 16.091 44.2047 15.7092L44.2047 15.7092L44.2013 15.7086C43.0394 15.5108 42.2579 14.4175 42.4322 13.266C42.6352 12.1082 43.7076 11.3382 44.8333 11.5171C48.6701 12.2578 51.6519 15.3712 52.2449 19.2743L52.2449 19.2743L52.2456 19.2785L52.3031 19.6087C52.4105 20.7071 51.6521 21.7119 50.5969 21.929C50.0083 21.9708 49.4204 21.8045 48.9863 21.4331C48.5439 21.0545 48.2622 20.5104 48.208 19.9027Z" stroke="url(#paint4_linear_221_324)" stroke-width="0.4"/>
</g>
<defs>
<filter id="filter0_b_221_324" x="27.8797" y="4.08801" width="64.4752" height="63.8087" filterUnits="userSpaceOnUse" color-interpolation-filters="sRGB">
<feFlood flood-opacity="0" result="BackgroundImageFix"/>
<feGaussianBlur in="BackgroundImage" stdDeviation="6.5"/>
<feComposite in2="SourceAlpha" operator="in" result="effect1_backgroundBlur_221_324"/>
<feBlend mode="normal" in="SourceGraphic" in2="effect1_backgroundBlur_221_324" result="shape"/>
</filter>
<filter id="filter1_f_221_324" x="24.8313" y="6.03571" width="60.2794" height="59.8588" filterUnits="userSpaceOnUse" color-interpolation-filters="sRGB">
<feFlood flood-opacity="0" result="BackgroundImageFix"/>
<feBlend mode="normal" in="SourceGraphic" in2="BackgroundImageFix" result="shape"/>
<feGaussianBlur stdDeviation="9" result="effect1_foregroundBlur_221_324"/>
</filter>
<filter id="filter2_b_221_324" x="50.8841" y="-3.49878" width="34.5676" height="34.463" filterUnits="userSpaceOnUse" color-interpolation-filters="sRGB">
<feFlood flood-opacity="0" result="BackgroundImageFix"/>
<feGaussianBlur in="BackgroundImage" stdDeviation="6.5"/>
<feComposite in2="SourceAlpha" operator="in" result="effect1_backgroundBlur_221_324"/>
<feBlend mode="normal" in="SourceGraphic" in2="effect1_backgroundBlur_221_324" result="shape"/>
</filter>
<filter id="filter3_b_221_324" x="-22.0611" y="-22.2604" width="107.667" height="106.047" filterUnits="userSpaceOnUse" color-interpolation-filters="sRGB">
<feFlood flood-opacity="0" result="BackgroundImageFix"/>
<feGaussianBlur in="BackgroundImage" stdDeviation="12"/>
<feComposite in2="SourceAlpha" operator="in" result="effect1_backgroundBlur_221_324"/>
<feBlend mode="normal" in="SourceGraphic" in2="effect1_backgroundBlur_221_324" result="shape"/>
</filter>
<filter id="filter4_bd_221_324" x="27.2079" y="-3.70874" width="40.3055" height="40.8439" filterUnits="userSpaceOnUse" color-interpolation-filters="sRGB">
<feFlood flood-opacity="0" result="BackgroundImageFix"/>
<feGaussianBlur in="BackgroundImage" stdDeviation="7.5"/>
<feComposite in2="SourceAlpha" operator="in" result="effect1_backgroundBlur_221_324"/>
<feColorMatrix in="SourceAlpha" type="matrix" values="0 0 0 0 0 0 0 0 0 0 0 0 0 0 0 0 0 0 127 0" result="hardAlpha"/>
<feOffset dx="5" dy="5"/>
<feGaussianBlur stdDeviation="5"/>
<feColorMatrix type="matrix" values="0 0 0 0 1 0 0 0 0 0.321569 0 0 0 0 0.54902 0 0 0 0.5 0"/>
<feBlend mode="normal" in2="effect1_backgroundBlur_221_324" result="effect2_dropShadow_221_324"/>
<feBlend mode="normal" in="SourceGraphic" in2="effect2_dropShadow_221_324" result="shape"/>
</filter>
<linearGradient id="paint0_linear_221_324" x1="58.5019" y1="42.4314" x2="20.2568" y2="39.795" gradientUnits="userSpaceOnUse">
<stop stop-color="#FF99FF"/>
<stop offset="1" stop-color="#FF00FF"/>
</linearGradient>
<linearGradient id="paint1_linear_221_324" x1="67.9603" y1="15.0099" x2="59.49" y2="15.174" gradientUnits="userSpaceOnUse">
<stop stop-color="#FF99FF"/>
<stop offset="1" stop-color="#FF00FF"/>
</linearGradient>
<linearGradient id="paint2_linear_221_324" x1="10.1763" y1="14.502" x2="51.8572" y2="53.0962" gradientUnits="userSpaceOnUse">
<stop stop-color="white" stop-opacity="0.25"/>
<stop offset="1" stop-color="white" stop-opacity="0"/>
</linearGradient>
<linearGradient id="paint3_linear_221_324" x1="50.5892" y1="12.3643" x2="40.5882" y2="14.3674" gradientUnits="userSpaceOnUse">
<stop stop-color="white"/>
<stop offset="1" stop-color="white" stop-opacity="0.2"/>
</linearGradient>
<linearGradient id="paint4_linear_221_324" x1="43.5172" y1="12.8174" x2="52.3357" y2="18.7982" gradientUnits="userSpaceOnUse">
<stop stop-color="white" stop-opacity="0.25"/>
<stop offset="1" stop-color="white" stop-opacity="0"/>
</linearGradient>
</defs>
</svg>
