<svg width="75" height="85" viewBox="0 0 75 85" fill="none" xmlns="http://www.w3.org/2000/svg">
<path d="M51.7909 16.9639L30.6505 11.2686C22.9823 9.2028 17.3146 12.5143 15.2531 20.2494L8.27128 46.4474C6.17605 54.3093 9.4647 59.925 17.1329 61.9908L38.2733 67.6861C46.0651 69.7852 51.5797 66.5412 53.6749 58.6793L60.6568 32.4813C62.7182 24.7461 59.5827 19.063 51.7909 16.9639Z" fill="url(#paint0_linear_195_399)"/>
<g opacity="0.5" filter="url(#filter0_f_195_399)">
<path d="M28.5063 38.7506C24.1191 38.2814 20.792 34.5793 20.792 30.1672C20.792 25.755 24.1192 22.053 28.5063 21.5838L34.6845 20.923C40.179 20.3353 44.9702 24.6414 44.9702 30.1672C44.9702 35.693 40.179 39.9991 34.6845 39.4114L28.5063 38.7506Z" fill="#FFC9D3"/>
</g>
<g filter="url(#filter1_b_195_399)">
<path d="M68.3034 43.6979C68.3034 33.0058 61.8565 26.708 50.9467 26.708H22.3595C11.4468 26.708 5 33.0058 5 43.6979V66.9856C5 77.6777 11.4468 84.0003 22.3595 84.0003H50.958C61.8678 84.0003 68.3146 77.6777 68.3146 66.9856C68.3146 56.2934 68.3034 44.8792 68.3034 43.6979Z" fill="#FE7790"/>
<path d="M68.8034 43.6979C68.8034 38.2506 67.1589 33.862 64.0659 30.836C60.9743 27.8114 56.4967 26.208 50.9467 26.208H22.3595C16.8081 26.208 12.3298 27.8114 9.23786 30.836C6.14446 33.862 4.5 38.2506 4.5 43.6979V66.9856C4.5 72.4328 6.14442 76.8274 9.23748 79.8596C12.3292 82.8904 16.8076 84.5003 22.3595 84.5003H50.958C56.5085 84.5003 60.9861 82.8904 64.0775 79.8595C67.1702 76.8274 68.8146 72.4328 68.8146 66.9856C68.8146 61.6393 68.8118 56.1126 68.809 51.7748C68.8076 49.6035 68.8062 47.7302 68.8051 46.3265C68.8041 44.9258 68.8034 43.9928 68.8034 43.6979Z" stroke="url(#paint1_linear_195_399)" stroke-linecap="round" stroke-linejoin="round"/>
</g>
<g filter="url(#filter2_b_195_399)">
<path d="M45.4674 56.7826C46.3219 60.6751 49.7294 63.4138 53.6197 63.3425H71.0684C72.687 63.3425 74 61.9999 74 60.3403V49.9804C73.9965 48.3244 72.687 46.9782 71.0684 46.9747H53.3071C48.8819 46.9889 45.3077 50.6678 45.3146 55.2013C45.3146 55.732 45.3667 56.2626 45.4674 56.7826Z" fill="#FE7790"/>
<path d="M44.9766 56.8777L44.9764 56.8777L44.9791 56.8898C45.8826 61.0057 49.4897 63.916 53.6242 63.8425H71.0684C72.9741 63.8425 74.5 62.265 74.5 60.3403L74.5 49.9804L74.5 49.9794C74.496 48.0602 72.9754 46.4789 71.0695 46.4747H71.0684L53.3071 46.4747L53.3054 46.4747C48.5933 46.4898 44.8075 50.4039 44.8146 55.2017C44.8146 55.7649 44.8699 56.3272 44.9766 56.8777Z" stroke="url(#paint2_linear_195_399)" stroke-linecap="round" stroke-linejoin="round"/>
</g>
<g filter="url(#filter3_bd_195_399)">
<ellipse cx="53.4551" cy="55.1591" rx="3.48877" ry="3.50769" fill="url(#paint3_linear_195_399)"/>
<path d="M56.8438 55.1591C56.8438 57.0416 55.3261 58.5668 53.4551 58.5668C51.584 58.5668 50.0663 57.0416 50.0663 55.1591C50.0663 53.2765 51.584 51.7514 53.4551 51.7514C55.3261 51.7514 56.8438 53.2765 56.8438 55.1591Z" stroke="url(#paint4_linear_195_399)" stroke-opacity="0.5" stroke-width="0.2"/>
</g>
<g filter="url(#filter4_bd_195_399)">
<path d="M37.8813 43.7971H20.0266C18.69 43.7916 17.6094 42.724 17.615 41.4137C17.6206 40.1089 18.6984 39.0524 20.0266 39.0469H37.8926C39.2292 39.0414 40.321 40.1007 40.3267 41.411C40.3323 42.724 39.2517 43.7916 37.9151 43.7971H37.8926H37.8813Z" fill="url(#paint5_linear_195_399)"/>
<path d="M37.8926 39.1469L37.893 39.1469C39.1764 39.1416 40.2213 40.1583 40.2267 41.4114C40.232 42.6673 39.198 43.6917 37.9149 43.6971H37.8926H37.8813H20.0268C18.7436 43.6917 17.7096 42.6673 17.715 41.4142C17.7204 40.1661 18.7518 39.1523 20.0268 39.1469L37.8926 39.1469Z" stroke="url(#paint6_linear_195_399)" stroke-opacity="0.5" stroke-width="0.2"/>
</g>
<defs>
<filter id="filter0_f_195_399" x="0.791992" y="0.869202" width="64.1782" height="58.596" filterUnits="userSpaceOnUse" color-interpolation-filters="sRGB">
<feFlood flood-opacity="0" result="BackgroundImageFix"/>
<feBlend mode="normal" in="SourceGraphic" in2="BackgroundImageFix" result="shape"/>
<feGaussianBlur stdDeviation="10" result="effect1_foregroundBlur_195_399"/>
</filter>
<filter id="filter1_b_195_399" x="-20" y="1.70801" width="113.315" height="107.292" filterUnits="userSpaceOnUse" color-interpolation-filters="sRGB">
<feFlood flood-opacity="0" result="BackgroundImageFix"/>
<feGaussianBlur in="BackgroundImage" stdDeviation="12"/>
<feComposite in2="SourceAlpha" operator="in" result="effect1_backgroundBlur_195_399"/>
<feBlend mode="normal" in="SourceGraphic" in2="effect1_backgroundBlur_195_399" result="shape"/>
</filter>
<filter id="filter2_b_195_399" x="20.3146" y="21.9747" width="78.6854" height="66.3693" filterUnits="userSpaceOnUse" color-interpolation-filters="sRGB">
<feFlood flood-opacity="0" result="BackgroundImageFix"/>
<feGaussianBlur in="BackgroundImage" stdDeviation="12"/>
<feComposite in2="SourceAlpha" operator="in" result="effect1_backgroundBlur_195_399"/>
<feBlend mode="normal" in="SourceGraphic" in2="effect1_backgroundBlur_195_399" result="shape"/>
</filter>
<filter id="filter3_bd_195_399" x="34.9663" y="36.6514" width="36.9775" height="37.0154" filterUnits="userSpaceOnUse" color-interpolation-filters="sRGB">
<feFlood flood-opacity="0" result="BackgroundImageFix"/>
<feGaussianBlur in="BackgroundImage" stdDeviation="7.5"/>
<feComposite in2="SourceAlpha" operator="in" result="effect1_backgroundBlur_195_399"/>
<feColorMatrix in="SourceAlpha" type="matrix" values="0 0 0 0 0 0 0 0 0 0 0 0 0 0 0 0 0 0 127 0" result="hardAlpha"/>
<feOffset dx="5" dy="5"/>
<feGaussianBlur stdDeviation="5"/>
<feColorMatrix type="matrix" values="0 0 0 0 1 0 0 0 0 0.788235 0 0 0 0 0.827451 0 0 0 0.5 0"/>
<feBlend mode="normal" in2="effect1_backgroundBlur_195_399" result="effect2_dropShadow_195_399"/>
<feBlend mode="normal" in="SourceGraphic" in2="effect2_dropShadow_195_399" result="shape"/>
</filter>
<filter id="filter4_bd_195_399" x="2.61499" y="24.0469" width="52.7117" height="34.7502" filterUnits="userSpaceOnUse" color-interpolation-filters="sRGB">
<feFlood flood-opacity="0" result="BackgroundImageFix"/>
<feGaussianBlur in="BackgroundImage" stdDeviation="7.5"/>
<feComposite in2="SourceAlpha" operator="in" result="effect1_backgroundBlur_195_399"/>
<feColorMatrix in="SourceAlpha" type="matrix" values="0 0 0 0 0 0 0 0 0 0 0 0 0 0 0 0 0 0 127 0" result="hardAlpha"/>
<feOffset dx="5" dy="5"/>
<feGaussianBlur stdDeviation="5"/>
<feColorMatrix type="matrix" values="0 0 0 0 1 0 0 0 0 0.788235 0 0 0 0 0.827451 0 0 0 0.5 0"/>
<feBlend mode="normal" in2="effect1_backgroundBlur_195_399" result="effect2_dropShadow_195_399"/>
<feBlend mode="normal" in="SourceGraphic" in2="effect2_dropShadow_195_399" result="shape"/>
</filter>
<linearGradient id="paint0_linear_195_399" x1="60.6737" y1="19.357" x2="1.44872" y2="37.2022" gradientUnits="userSpaceOnUse">
<stop stop-color="#FFC9D3"/>
<stop offset="1" stop-color="#FE7790"/>
</linearGradient>
<linearGradient id="paint1_linear_195_399" x1="15.0787" y1="33.3826" x2="61.5954" y2="85.749" gradientUnits="userSpaceOnUse">
<stop stop-color="white" stop-opacity="0.25"/>
<stop offset="1" stop-color="white" stop-opacity="0"/>
</linearGradient>
<linearGradient id="paint2_linear_195_399" x1="49.8809" y1="48.8817" x2="61.2941" y2="69.2558" gradientUnits="userSpaceOnUse">
<stop stop-color="white" stop-opacity="0.25"/>
<stop offset="1" stop-color="white" stop-opacity="0"/>
</linearGradient>
<linearGradient id="paint3_linear_195_399" x1="56.4491" y1="52.9182" x2="48.6767" y2="53.1703" gradientUnits="userSpaceOnUse">
<stop stop-color="white"/>
<stop offset="1" stop-color="white" stop-opacity="0.2"/>
</linearGradient>
<linearGradient id="paint4_linear_195_399" x1="50.7179" y1="54.0047" x2="56.6428" y2="54.0372" gradientUnits="userSpaceOnUse">
<stop stop-color="white"/>
<stop offset="1" stop-color="white" stop-opacity="0"/>
</linearGradient>
<linearGradient id="paint5_linear_195_399" x1="38.7164" y1="39.9047" x2="13.9917" y2="43.7589" gradientUnits="userSpaceOnUse">
<stop stop-color="white"/>
<stop offset="1" stop-color="white" stop-opacity="0.2"/>
</linearGradient>
<linearGradient id="paint6_linear_195_399" x1="20.0615" y1="40.6404" x2="39.3341" y2="41.149" gradientUnits="userSpaceOnUse">
<stop stop-color="white"/>
<stop offset="1" stop-color="white" stop-opacity="0"/>
</linearGradient>
</defs>
</svg>
