<svg width="86" height="81" viewBox="0 0 86 81" fill="none" xmlns="http://www.w3.org/2000/svg">
<path d="M70.2559 11.3883L48.0463 5.42337C39.9904 3.25974 34.036 6.72799 31.8703 14.8293L24.5353 42.2676C22.3341 50.5017 25.7891 56.3832 33.8451 58.5468L56.0546 64.5118C64.2405 66.7103 70.0339 63.3127 72.2351 55.0785L79.5701 27.6403C81.7358 19.5389 78.4417 13.5868 70.2559 11.3883Z" fill="url(#paint0_linear_195_405)"/>
<g opacity="0.5" filter="url(#filter0_f_195_405)">
<path d="M64.4531 18.9022L49.3215 14.8382C43.8329 13.3641 39.7761 15.7271 38.3006 21.2466L33.3032 39.9406C31.8035 45.5505 34.1574 49.5577 39.646 51.0318L54.7776 55.0957C60.3547 56.5936 64.3019 54.2788 65.8016 48.6688L70.7989 29.9748C72.2744 24.4553 70.0301 20.4001 64.4531 18.9022Z" fill="#8080FF"/>
</g>
<g filter="url(#filter1_b_195_405)">
<mask id="path-3-outside-1_195_405" maskUnits="userSpaceOnUse" x="0" y="15.7217" width="66" height="66" fill="black">
<rect fill="white" y="15.7217" width="66" height="66"/>
<path d="M46.2648 16.7217H18.8976C8.19691 16.7217 1 24.2518 1 35.452V61.3011C1 72.4697 8.19691 79.9998 18.8976 79.9998H46.2648C56.9655 79.9998 64.1308 72.4697 64.1308 61.3011V35.452C64.1308 24.2518 56.9655 16.7217 46.2648 16.7217Z"/>
</mask>
<path d="M46.2648 16.7217H18.8976C8.19691 16.7217 1 24.2518 1 35.452V61.3011C1 72.4697 8.19691 79.9998 18.8976 79.9998H46.2648C56.9655 79.9998 64.1308 72.4697 64.1308 61.3011V35.452C64.1308 24.2518 56.9655 16.7217 46.2648 16.7217Z" fill="#CCCCFF" fill-opacity="0.35"/>
<path d="M46.2648 17.7217C46.8171 17.7217 47.2648 17.274 47.2648 16.7217C47.2648 16.1694 46.8171 15.7217 46.2648 15.7217V17.7217ZM46.2648 15.7217C45.7125 15.7217 45.2648 16.1694 45.2648 16.7217C45.2648 17.274 45.7125 17.7217 46.2648 17.7217V15.7217ZM46.2648 15.7217H18.8976V17.7217H46.2648V15.7217ZM18.8976 15.7217C13.3037 15.7217 8.55805 17.6955 5.21307 21.1959C1.87186 24.6923 0 29.6358 0 35.452H2C2 30.068 3.7266 25.6463 6.65901 22.5776C9.58766 19.5129 13.7908 17.7217 18.8976 17.7217V15.7217ZM0 35.452V61.3011H2V35.452H0ZM0 61.3011C0 67.1022 1.8723 72.0378 5.21348 75.53C8.55834 79.0261 13.3038 80.9998 18.8976 80.9998V78.9998C13.7907 78.9998 9.58736 77.2085 6.6586 74.1474C3.72615 71.0824 2 66.6686 2 61.3011H0ZM18.8976 80.9998H46.2648V78.9998H18.8976V80.9998ZM46.2648 80.9998C51.8588 80.9998 56.5968 79.0259 59.934 75.5291C63.2672 72.0365 65.1308 67.101 65.1308 61.3011H63.1308C63.1308 66.6698 61.4118 71.0837 58.4871 74.1483C55.5664 77.2087 51.3714 78.9998 46.2648 78.9998V80.9998ZM65.1308 61.3011V35.452H63.1308V61.3011H65.1308ZM65.1308 35.452C65.1308 29.637 63.2676 24.6937 59.9344 21.1968C56.5971 17.6957 51.8588 15.7217 46.2648 15.7217V17.7217C51.3714 17.7217 55.5661 19.5128 58.4867 22.5767C61.4113 25.645 63.1308 30.0668 63.1308 35.452H65.1308Z" fill="url(#paint1_linear_195_405)" mask="url(#path-3-outside-1_195_405)"/>
</g>
<g filter="url(#filter2_bd_195_405)">
<mask id="path-5-inside-2_195_405" fill="white">
<path d="M28.8185 58.6373C28.1114 58.6373 27.4043 58.3684 26.8646 57.8274L19.3741 50.3194C18.2946 49.2374 18.2946 47.4846 19.3741 46.4057C20.4536 45.3236 22.1992 45.3204 23.2787 46.4025L28.8185 51.9552L41.8487 38.8946C42.9282 37.8125 44.6738 37.8125 45.7533 38.8946C46.8329 39.9766 46.8329 41.7294 45.7533 42.8115L30.7724 57.8274C30.2326 58.3684 29.5255 58.6373 28.8185 58.6373Z"/>
</mask>
<path d="M28.8185 58.6373C28.1114 58.6373 27.4043 58.3684 26.8646 57.8274L19.3741 50.3194C18.2946 49.2374 18.2946 47.4846 19.3741 46.4057C20.4536 45.3236 22.1992 45.3204 23.2787 46.4025L28.8185 51.9552L41.8487 38.8946C42.9282 37.8125 44.6738 37.8125 45.7533 38.8946C46.8329 39.9766 46.8329 41.7294 45.7533 42.8115L30.7724 57.8274C30.2326 58.3684 29.5255 58.6373 28.8185 58.6373Z" fill="url(#paint2_linear_195_405)"/>
<path d="M19.3741 46.4057L19.5155 46.5471L19.5157 46.5469L19.3741 46.4057ZM28.8185 51.9552L28.6769 52.0964L28.8185 52.2383L28.9601 52.0964L28.8185 51.9552ZM45.7533 42.8115L45.6117 42.6702L45.7533 42.8115ZM30.7724 57.8274L30.914 57.9686L30.7724 57.8274ZM28.8185 58.4373C28.1622 58.4373 27.5068 58.1879 27.0062 57.6861L26.723 57.9686C27.3019 58.5489 28.0606 58.8373 28.8185 58.8373V58.4373ZM27.0062 57.6861L19.5157 50.1782L19.2325 50.4607L26.723 57.9686L27.0062 57.6861ZM19.5157 50.1782C18.5139 49.1741 18.5142 47.5478 19.5155 46.5471L19.2327 46.2642C18.0749 47.4213 18.0752 49.3007 19.2325 50.4607L19.5157 50.1782ZM19.5157 46.5469C20.5174 45.5429 22.1361 45.5403 23.1372 46.5438L23.4203 46.2612C22.2624 45.1006 20.3899 45.1043 19.2325 46.2644L19.5157 46.5469ZM23.1372 46.5438L28.6769 52.0964L28.9601 51.8139L23.4203 46.2612L23.1372 46.5438ZM28.9601 52.0964L41.9903 39.0358L41.7071 38.7533L28.6769 51.8139L28.9601 52.0964ZM41.9903 39.0358C42.9917 38.0321 44.6103 38.0321 45.6117 39.0358L45.8949 38.7533C44.7372 37.5929 42.8648 37.5929 41.7071 38.7533L41.9903 39.0358ZM45.6117 39.0358C46.6134 40.0398 46.6134 41.6662 45.6117 42.6702L45.8949 42.9527C47.0523 41.7926 47.0523 39.9134 45.8949 38.7533L45.6117 39.0358ZM45.6117 42.6702L30.6308 57.6861L30.914 57.9686L45.8949 42.9527L45.6117 42.6702ZM30.6308 57.6861C30.1302 58.1879 29.4748 58.4373 28.8185 58.4373V58.8373C29.5763 58.8373 30.335 58.5489 30.914 57.9686L30.6308 57.6861Z" fill="url(#paint3_linear_195_405)" fill-opacity="0.5" mask="url(#path-5-inside-2_195_405)"/>
</g>
<defs>
<filter id="filter0_f_195_405" x="18.8601" y="0.408569" width="66.3809" height="69.1325" filterUnits="userSpaceOnUse" color-interpolation-filters="sRGB">
<feFlood flood-opacity="0" result="BackgroundImageFix"/>
<feBlend mode="normal" in="SourceGraphic" in2="BackgroundImageFix" result="shape"/>
<feGaussianBlur stdDeviation="7" result="effect1_foregroundBlur_195_405"/>
</filter>
<filter id="filter1_b_195_405" x="-24" y="-8.27832" width="113.131" height="113.278" filterUnits="userSpaceOnUse" color-interpolation-filters="sRGB">
<feFlood flood-opacity="0" result="BackgroundImageFix"/>
<feGaussianBlur in="BackgroundImage" stdDeviation="12"/>
<feComposite in2="SourceAlpha" operator="in" result="effect1_backgroundBlur_195_405"/>
<feBlend mode="normal" in="SourceGraphic" in2="effect1_backgroundBlur_195_405" result="shape"/>
</filter>
<filter id="filter2_bd_195_405" x="3.56445" y="23.083" width="57.9985" height="50.5543" filterUnits="userSpaceOnUse" color-interpolation-filters="sRGB">
<feFlood flood-opacity="0" result="BackgroundImageFix"/>
<feGaussianBlur in="BackgroundImage" stdDeviation="7.5"/>
<feComposite in2="SourceAlpha" operator="in" result="effect1_backgroundBlur_195_405"/>
<feColorMatrix in="SourceAlpha" type="matrix" values="0 0 0 0 0 0 0 0 0 0 0 0 0 0 0 0 0 0 127 0" result="hardAlpha"/>
<feOffset dx="5" dy="5"/>
<feGaussianBlur stdDeviation="5"/>
<feColorMatrix type="matrix" values="0 0 0 0 0.8 0 0 0 0 0.8 0 0 0 0 1 0 0 0 0.5 0"/>
<feBlend mode="normal" in2="effect1_backgroundBlur_195_405" result="effect2_dropShadow_195_405"/>
<feBlend mode="normal" in="SourceGraphic" in2="effect2_dropShadow_195_405" result="shape"/>
</filter>
<linearGradient id="paint0_linear_195_405" x1="82.9997" y1="14.811" x2="34.5035" y2="44.4229" gradientUnits="userSpaceOnUse">
<stop stop-color="#CCCCFF"/>
<stop offset="1" stop-color="#8080FF"/>
</linearGradient>
<linearGradient id="paint1_linear_195_405" x1="11.0494" y1="24.0937" x2="51.4338" y2="73.9943" gradientUnits="userSpaceOnUse">
<stop stop-color="white" stop-opacity="0.25"/>
<stop offset="1" stop-color="white" stop-opacity="0"/>
</linearGradient>
<linearGradient id="paint2_linear_195_405" x1="44.5779" y1="41.7947" x2="13.4185" y2="43.1786" gradientUnits="userSpaceOnUse">
<stop stop-color="white"/>
<stop offset="1" stop-color="white" stop-opacity="0.2"/>
</linearGradient>
<linearGradient id="paint3_linear_195_405" x1="21.5805" y1="44.978" x2="45.3545" y2="45.1568" gradientUnits="userSpaceOnUse">
<stop stop-color="white"/>
<stop offset="1" stop-color="white" stop-opacity="0"/>
</linearGradient>
</defs>
</svg>
