<svg width="57" height="64" viewBox="0 0 57 64" fill="none" xmlns="http://www.w3.org/2000/svg">
<path d="M22.368 26.8479C20.544 26.8479 19.104 28.4479 19.104 30.3999C19.104 32.3519 20.576 33.9519 22.368 33.9519C24.192 33.9519 25.632 32.3519 25.632 30.3999C25.664 28.4479 24.192 26.8479 22.368 26.8479ZM34.048 26.8479C32.224 26.8479 30.784 28.4479 30.784 30.3999C30.784 32.3519 32.256 33.9519 34.048 33.9519C35.872 33.9519 37.312 32.3519 37.312 30.3999C37.312 28.4479 35.872 26.8479 34.048 26.8479Z" fill="white"/>
<path d="M49.6 0H6.72001C3.104 0 0.160004 2.944 0.160004 6.592V49.856C0.160004 53.504 3.104 56.448 6.72001 56.448H43.008L41.312 50.528L45.408 54.336L49.28 57.92L56.16 64V6.592C56.16 2.944 53.216 0 49.6 0ZM37.248 41.792C37.248 41.792 36.096 40.416 35.136 39.2C39.328 38.016 40.928 35.392 40.928 35.392C39.616 36.256 38.368 36.864 37.248 37.28C35.648 37.952 34.112 38.4 32.608 38.656C29.536 39.232 26.72 39.072 24.32 38.624C22.496 38.272 20.928 37.76 19.616 37.248C18.88 36.96 18.08 36.608 17.28 36.16C17.184 36.096 17.088 36.064 16.992 36C16.928 35.968 16.896 35.936 16.864 35.904C16.288 35.584 15.968 35.36 15.968 35.36C15.968 35.36 17.504 37.92 21.568 39.136C20.608 40.352 19.424 41.792 19.424 41.792C12.352 41.568 9.66401 36.928 9.66401 36.928C9.66401 26.624 14.272 18.272 14.272 18.272C18.88 14.816 23.264 14.912 23.264 14.912L23.584 15.296C17.824 16.96 15.168 19.488 15.168 19.488C15.168 19.488 15.872 19.104 17.056 18.56C20.48 17.056 23.2 16.64 24.32 16.544C24.512 16.512 24.672 16.48 24.864 16.48C26.816 16.224 29.024 16.16 31.328 16.416C34.368 16.768 37.632 17.664 40.96 19.488C40.96 19.488 38.432 17.088 32.992 15.424L33.44 14.912C33.44 14.912 37.824 14.816 42.432 18.272C42.432 18.272 47.04 26.624 47.04 36.928C47.04 36.928 44.32 41.568 37.248 41.792V41.792Z" fill="white"/>
</svg>
