<svg width="64" height="64" viewBox="0 0 64 64" fill="none" xmlns="http://www.w3.org/2000/svg">
<path d="M26.368 26.8479C24.544 26.8479 23.104 28.4479 23.104 30.3999C23.104 32.3519 24.576 33.9519 26.368 33.9519C28.192 33.9519 29.632 32.3519 29.632 30.3999C29.664 28.4479 28.192 26.8479 26.368 26.8479ZM38.048 26.8479C36.224 26.8479 34.784 28.4479 34.784 30.3999C34.784 32.3519 36.256 33.9519 38.048 33.9519C39.872 33.9519 41.312 32.3519 41.312 30.3999C41.312 28.4479 39.872 26.8479 38.048 26.8479Z" fill="white"/>
<path d="M26.368 26.8479C24.544 26.8479 23.104 28.4479 23.104 30.3999C23.104 32.3519 24.576 33.9519 26.368 33.9519C28.192 33.9519 29.632 32.3519 29.632 30.3999C29.664 28.4479 28.192 26.8479 26.368 26.8479ZM38.048 26.8479C36.224 26.8479 34.784 28.4479 34.784 30.3999C34.784 32.3519 36.256 33.9519 38.048 33.9519C39.872 33.9519 41.312 32.3519 41.312 30.3999C41.312 28.4479 39.872 26.8479 38.048 26.8479Z" fill="url(#paint0_linear_195_354)"/>
<path d="M53.6 0H10.72C7.104 0 4.16 2.944 4.16 6.592V49.856C4.16 53.504 7.104 56.448 10.72 56.448H47.008L45.312 50.528L49.408 54.336L53.28 57.92L60.16 64V6.592C60.16 2.944 57.216 0 53.6 0ZM41.248 41.792C41.248 41.792 40.096 40.416 39.136 39.2C43.328 38.016 44.928 35.392 44.928 35.392C43.616 36.256 42.368 36.864 41.248 37.28C39.648 37.952 38.112 38.4 36.608 38.656C33.536 39.232 30.72 39.072 28.32 38.624C26.496 38.272 24.928 37.76 23.616 37.248C22.88 36.96 22.08 36.608 21.28 36.16C21.184 36.096 21.088 36.064 20.992 36C20.928 35.968 20.896 35.936 20.864 35.904C20.288 35.584 19.968 35.36 19.968 35.36C19.968 35.36 21.504 37.92 25.568 39.136C24.608 40.352 23.424 41.792 23.424 41.792C16.352 41.568 13.664 36.928 13.664 36.928C13.664 26.624 18.272 18.272 18.272 18.272C22.88 14.816 27.264 14.912 27.264 14.912L27.584 15.296C21.824 16.96 19.168 19.488 19.168 19.488C19.168 19.488 19.872 19.104 21.056 18.56C24.48 17.056 27.2 16.64 28.32 16.544C28.512 16.512 28.672 16.48 28.864 16.48C30.816 16.224 33.024 16.16 35.328 16.416C38.368 16.768 41.632 17.664 44.96 19.488C44.96 19.488 42.432 17.088 36.992 15.424L37.44 14.912C37.44 14.912 41.824 14.816 46.432 18.272C46.432 18.272 51.04 26.624 51.04 36.928C51.04 36.928 48.32 41.568 41.248 41.792V41.792Z" fill="white"/>
<path d="M53.6 0H10.72C7.104 0 4.16 2.944 4.16 6.592V49.856C4.16 53.504 7.104 56.448 10.72 56.448H47.008L45.312 50.528L49.408 54.336L53.28 57.92L60.16 64V6.592C60.16 2.944 57.216 0 53.6 0ZM41.248 41.792C41.248 41.792 40.096 40.416 39.136 39.2C43.328 38.016 44.928 35.392 44.928 35.392C43.616 36.256 42.368 36.864 41.248 37.28C39.648 37.952 38.112 38.4 36.608 38.656C33.536 39.232 30.72 39.072 28.32 38.624C26.496 38.272 24.928 37.76 23.616 37.248C22.88 36.96 22.08 36.608 21.28 36.16C21.184 36.096 21.088 36.064 20.992 36C20.928 35.968 20.896 35.936 20.864 35.904C20.288 35.584 19.968 35.36 19.968 35.36C19.968 35.36 21.504 37.92 25.568 39.136C24.608 40.352 23.424 41.792 23.424 41.792C16.352 41.568 13.664 36.928 13.664 36.928C13.664 26.624 18.272 18.272 18.272 18.272C22.88 14.816 27.264 14.912 27.264 14.912L27.584 15.296C21.824 16.96 19.168 19.488 19.168 19.488C19.168 19.488 19.872 19.104 21.056 18.56C24.48 17.056 27.2 16.64 28.32 16.544C28.512 16.512 28.672 16.48 28.864 16.48C30.816 16.224 33.024 16.16 35.328 16.416C38.368 16.768 41.632 17.664 44.96 19.488C44.96 19.488 42.432 17.088 36.992 15.424L37.44 14.912C37.44 14.912 41.824 14.816 46.432 18.272C46.432 18.272 51.04 26.624 51.04 36.928C51.04 36.928 48.32 41.568 41.248 41.792V41.792Z" fill="url(#paint1_linear_195_354)"/>
<defs>
<linearGradient id="paint0_linear_195_354" x1="20.6838" y1="27.7599" x2="23.8067" y2="38.0368" gradientUnits="userSpaceOnUse">
<stop stop-color="#FF00FF"/>
<stop offset="1" stop-color="#00FFFF"/>
</linearGradient>
<linearGradient id="paint1_linear_195_354" x1="-3.28336" y1="8.21609" x2="46.9427" y2="64.6433" gradientUnits="userSpaceOnUse">
<stop stop-color="#FF00FF"/>
<stop offset="1" stop-color="#00FFFF"/>
</linearGradient>
</defs>
</svg>
