<svg width="64" height="64" viewBox="0 0 64 64" fill="none" xmlns="http://www.w3.org/2000/svg">
<g clip-path="url(#clip0_195_360)">
<path d="M36.0998 31.5402C36.0998 41.5955 28.0185 49.7468 18.0502 49.7468C8.08194 49.7468 0 41.5936 0 31.5402C0 21.4868 8.08133 13.333 18.0502 13.333C28.0191 13.333 36.0998 21.485 36.0998 31.5402Z" fill="url(#paint0_linear_195_360)"/>
<path d="M55.9008 31.5401C55.9008 41.0049 51.8602 48.6808 46.8757 48.6808C41.8913 48.6808 37.8506 41.0049 37.8506 31.5401C37.8506 22.0752 41.8906 14.3994 46.8751 14.3994C51.8596 14.3994 55.9002 22.0728 55.9002 31.5401" fill="url(#paint1_linear_195_360)"/>
<path d="M64 31.5409C64 40.0191 62.5791 46.8962 60.8259 46.8962C59.0726 46.8962 57.6523 40.0209 57.6523 31.5409C57.6523 23.0609 59.0732 16.1855 60.8259 16.1855C62.5785 16.1855 64 23.0602 64 31.5409Z" fill="url(#paint2_linear_195_360)"/>
</g>
<defs>
<linearGradient id="paint0_linear_195_360" x1="3.90367e-08" y1="13" x2="66.5" y2="55" gradientUnits="userSpaceOnUse">
<stop stop-color="#FF00FF"/>
<stop offset="1" stop-color="#00FFFF"/>
</linearGradient>
<linearGradient id="paint1_linear_195_360" x1="29" y1="8.5" x2="77" y2="45" gradientUnits="userSpaceOnUse">
<stop stop-color="#FF00FF"/>
<stop offset="1" stop-color="#00FFFF"/>
</linearGradient>
<linearGradient id="paint2_linear_195_360" x1="47" y1="9.5" x2="61" y2="40" gradientUnits="userSpaceOnUse">
<stop stop-color="#FF00FF"/>
<stop offset="1" stop-color="#00FFFF"/>
</linearGradient>
<clipPath id="clip0_195_360">
<rect width="64" height="64" fill="white"/>
</clipPath>
</defs>
</svg>
