<svg width="162" height="153" viewBox="0 0 162 153" fill="none" xmlns="http://www.w3.org/2000/svg">
<path d="M75.1754 11.737L29.7242 29.7156C11.9526 36.7453 4.88539 53.9743 12.1519 72.5683L28.9224 115.481C36.1683 134.023 53.0063 141.796 70.7779 134.766L116.229 116.788C134.001 109.758 141.016 92.5496 133.77 74.0082L116.999 31.095C109.733 12.5011 92.947 4.70725 75.1754 11.737Z" fill="url(#paint0_linear_195_430)"/>
<g opacity="0.5" filter="url(#filter0_f_195_430)">
<path d="M79.3962 30.6017L45.3654 43.9917C33.0215 48.8486 28.3132 58.0477 32.5606 68.9647L46.946 105.939C51.263 117.035 60.8732 120.436 73.2171 115.579L107.248 102.189C119.791 97.2534 124.352 88.2774 120.035 77.1814L105.649 40.2068C101.402 29.2898 91.9391 25.6665 79.3962 30.6017Z" fill="#FF00FF"/>
</g>
<g filter="url(#filter1_b_195_430)">
<mask id="path-3-outside-1_195_430" maskUnits="userSpaceOnUse" x="47.4706" y="37.9902" width="115" height="116" fill="black">
<rect fill="white" x="47.4706" y="37.9902" width="115" height="116"/>
<path d="M129.154 38.9902H80.3727C61.299 38.9902 48.4706 52.4384 48.4706 72.4411V118.606C48.4706 138.552 61.299 152 80.3727 152H129.154C148.228 152 161 138.552 161 118.606V72.4411C161 52.4384 148.228 38.9902 129.154 38.9902Z"/>
</mask>
<path d="M129.154 38.9902H80.3727C61.299 38.9902 48.4706 52.4384 48.4706 72.4411V118.606C48.4706 138.552 61.299 152 80.3727 152H129.154C148.228 152 161 138.552 161 118.606V72.4411C161 52.4384 148.228 38.9902 129.154 38.9902Z" fill="#FF99FF" fill-opacity="0.35"/>
<path d="M129.154 39.9902C129.706 39.9902 130.154 39.5425 130.154 38.9902C130.154 38.4379 129.706 37.9902 129.154 37.9902V39.9902ZM129.154 37.9902C128.602 37.9902 128.154 38.4379 128.154 38.9902C128.154 39.5425 128.602 39.9902 129.154 39.9902V37.9902ZM129.154 37.9902H80.3727V39.9902H129.154V37.9902ZM80.3727 37.9902C70.5917 37.9902 62.3447 41.444 56.5454 47.5245C50.75 53.6009 47.4706 62.2242 47.4706 72.4411H49.4706C49.4706 62.6553 52.6054 54.5532 57.9926 48.9048C63.3759 43.2606 71.08 39.9902 80.3727 39.9902V37.9902ZM47.4706 72.4411V118.606H49.4706V72.4411H47.4706ZM47.4706 118.606C47.4706 128.795 50.7504 137.404 56.5458 143.473C62.345 149.546 70.5917 153 80.3727 153V151C71.0799 151 63.3756 147.73 57.9922 142.092C52.605 136.45 49.4706 128.362 49.4706 118.606H47.4706ZM80.3727 153H129.154V151H80.3727V153ZM129.154 153C138.935 153 147.169 149.546 152.954 143.472C158.735 137.403 162 128.794 162 118.606H160C160 128.364 156.879 136.452 151.506 142.093C146.136 147.73 138.447 151 129.154 151V153ZM162 118.606V72.4411H160V118.606H162ZM162 72.4411C162 62.2254 158.735 53.6022 152.954 47.5254C147.169 41.4442 138.935 37.9902 129.154 37.9902V39.9902C138.447 39.9902 146.136 43.2604 151.505 48.9039C156.878 54.5519 160 62.6541 160 72.4411H162Z" fill="url(#paint1_linear_195_430)" mask="url(#path-3-outside-1_195_430)"/>
</g>
<g filter="url(#filter2_bd_195_430)">
<mask id="path-5-inside-2_195_430" fill="white">
<path fill-rule="evenodd" clip-rule="evenodd" d="M132.7 109.968C135.029 109.968 136.92 108.07 136.92 105.73V95.2655C136.92 92.9262 135.029 91.0277 132.7 91.0277H100.674C98.8511 84.9986 93.3259 80.5686 86.7317 80.5686C78.6633 80.5686 72.0972 87.1627 72.0972 95.2655C72.0972 103.374 78.6633 109.968 86.7317 109.968C93.3259 109.968 98.8511 105.538 100.674 99.5034H112.557V105.73C112.557 108.07 114.448 109.968 116.777 109.968C119.106 109.968 120.997 108.07 120.997 105.73V99.5034H128.48V105.73C128.48 108.07 130.371 109.968 132.7 109.968ZM80.5312 95.2649C80.5312 91.8294 83.3163 89.0381 86.7316 89.0381C90.1469 89.0381 92.932 91.8294 92.932 95.2649C92.932 98.6948 90.1469 101.486 86.7316 101.486C83.3163 101.486 80.5312 98.6948 80.5312 95.2649Z"/>
</mask>
<path fill-rule="evenodd" clip-rule="evenodd" d="M132.7 109.968C135.029 109.968 136.92 108.07 136.92 105.73V95.2655C136.92 92.9262 135.029 91.0277 132.7 91.0277H100.674C98.8511 84.9986 93.3259 80.5686 86.7317 80.5686C78.6633 80.5686 72.0972 87.1627 72.0972 95.2655C72.0972 103.374 78.6633 109.968 86.7317 109.968C93.3259 109.968 98.8511 105.538 100.674 99.5034H112.557V105.73C112.557 108.07 114.448 109.968 116.777 109.968C119.106 109.968 120.997 108.07 120.997 105.73V99.5034H128.48V105.73C128.48 108.07 130.371 109.968 132.7 109.968ZM80.5312 95.2649C80.5312 91.8294 83.3163 89.0381 86.7316 89.0381C90.1469 89.0381 92.932 91.8294 92.932 95.2649C92.932 98.6948 90.1469 101.486 86.7316 101.486C83.3163 101.486 80.5312 98.6948 80.5312 95.2649Z" fill="url(#paint2_linear_195_430)"/>
<path d="M100.674 91.0277L100.483 91.0855L100.526 91.2277H100.674V91.0277ZM100.674 99.5034V99.3034H100.526L100.483 99.4456L100.674 99.5034ZM112.557 99.5034H112.757V99.3034H112.557V99.5034ZM120.997 99.5034V99.3034H120.797V99.5034H120.997ZM128.48 99.5034H128.68V99.3034H128.48V99.5034ZM136.72 105.73C136.72 107.96 134.918 109.768 132.7 109.768V110.168C135.141 110.168 137.12 108.179 137.12 105.73H136.72ZM136.72 95.2655V105.73H137.12V95.2655H136.72ZM132.7 91.2277C134.918 91.2277 136.72 93.0359 136.72 95.2655H137.12C137.12 92.8166 135.141 90.8277 132.7 90.8277V91.2277ZM100.674 91.2277H132.7V90.8277H100.674V91.2277ZM86.7317 80.7686C93.233 80.7686 98.6838 85.1363 100.483 91.0855L100.866 90.9698C99.0184 84.8609 93.4188 80.3686 86.7317 80.3686V80.7686ZM72.2972 95.2655C72.2972 87.2724 78.7746 80.7686 86.7317 80.7686V80.3686C78.5521 80.3686 71.8972 87.0531 71.8972 95.2655H72.2972ZM86.7317 109.768C78.7746 109.768 72.2972 103.264 72.2972 95.2655H71.8972C71.8972 103.484 78.552 110.168 86.7317 110.168V109.768ZM100.483 99.4456C98.6838 105.4 93.233 109.768 86.7317 109.768V110.168C93.4188 110.168 99.0185 105.676 100.866 99.5612L100.483 99.4456ZM112.557 99.3034H100.674V99.7034H112.557V99.3034ZM112.757 105.73V99.5034H112.357V105.73H112.757ZM116.777 109.768C114.559 109.768 112.757 107.96 112.757 105.73H112.357C112.357 108.179 114.336 110.168 116.777 110.168V109.768ZM120.797 105.73C120.797 107.96 118.995 109.768 116.777 109.768V110.168C119.218 110.168 121.197 108.179 121.197 105.73H120.797ZM120.797 99.5034V105.73H121.197V99.5034H120.797ZM128.48 99.3034H120.997V99.7034H128.48V99.3034ZM128.68 105.73V99.5034H128.28V105.73H128.68ZM132.7 109.768C130.482 109.768 128.68 107.96 128.68 105.73H128.28C128.28 108.179 130.259 110.168 132.7 110.168V109.768ZM86.7316 88.8381C83.2052 88.8381 80.3312 91.7197 80.3312 95.2649H80.7312C80.7312 91.9392 83.4275 89.2381 86.7316 89.2381V88.8381ZM93.132 95.2649C93.132 91.7197 90.258 88.8381 86.7316 88.8381V89.2381C90.0357 89.2381 92.732 91.9392 92.732 95.2649H93.132ZM86.7316 101.686C90.2579 101.686 93.132 98.8047 93.132 95.2649H92.732C92.732 98.5849 90.0358 101.286 86.7316 101.286V101.686ZM80.3312 95.2649C80.3312 98.8047 83.2053 101.686 86.7316 101.686V101.286C83.4274 101.286 80.7312 98.5849 80.7312 95.2649H80.3312Z" fill="url(#paint3_linear_195_430)" fill-opacity="0.5" mask="url(#path-5-inside-2_195_430)"/>
</g>
<defs>
<filter id="filter0_f_195_430" x="14.0317" y="11.436" width="124.59" height="123.3" filterUnits="userSpaceOnUse" color-interpolation-filters="sRGB">
<feFlood flood-opacity="0" result="BackgroundImageFix"/>
<feBlend mode="normal" in="SourceGraphic" in2="BackgroundImageFix" result="shape"/>
<feGaussianBlur stdDeviation="8.5" result="effect1_foregroundBlur_195_430"/>
</filter>
<filter id="filter1_b_195_430" x="23.4706" y="13.9902" width="162.529" height="163.01" filterUnits="userSpaceOnUse" color-interpolation-filters="sRGB">
<feFlood flood-opacity="0" result="BackgroundImageFix"/>
<feGaussianBlur in="BackgroundImage" stdDeviation="12"/>
<feComposite in2="SourceAlpha" operator="in" result="effect1_backgroundBlur_195_430"/>
<feBlend mode="normal" in="SourceGraphic" in2="effect1_backgroundBlur_195_430" result="shape"/>
</filter>
<filter id="filter2_bd_195_430" x="57.0972" y="65.5686" width="94.8226" height="59.3995" filterUnits="userSpaceOnUse" color-interpolation-filters="sRGB">
<feFlood flood-opacity="0" result="BackgroundImageFix"/>
<feGaussianBlur in="BackgroundImage" stdDeviation="7.5"/>
<feComposite in2="SourceAlpha" operator="in" result="effect1_backgroundBlur_195_430"/>
<feColorMatrix in="SourceAlpha" type="matrix" values="0 0 0 0 0 0 0 0 0 0 0 0 0 0 0 0 0 0 127 0" result="hardAlpha"/>
<feOffset dx="5" dy="5"/>
<feGaussianBlur stdDeviation="5"/>
<feColorMatrix type="matrix" values="0 0 0 0 1 0 0 0 0 0.6 0 0 0 0 1 0 0 0 0.5 0"/>
<feBlend mode="normal" in2="effect1_backgroundBlur_195_430" result="effect2_dropShadow_195_430"/>
<feBlend mode="normal" in="SourceGraphic" in2="effect2_dropShadow_195_430" result="shape"/>
</filter>
<linearGradient id="paint0_linear_195_430" x1="104.844" y1="0.00623952" x2="64.8103" y2="115.88" gradientUnits="userSpaceOnUse">
<stop stop-color="#FF99FF"/>
<stop offset="0.9999" stop-color="#FF00FF"/>
</linearGradient>
<linearGradient id="paint1_linear_195_430" x1="66.3835" y1="52.156" x2="138.536" y2="141.139" gradientUnits="userSpaceOnUse">
<stop stop-color="white" stop-opacity="0.25"/>
<stop offset="1" stop-color="white" stop-opacity="0"/>
</linearGradient>
<linearGradient id="paint2_linear_195_430" x1="132.324" y1="85.8776" x2="60.4126" y2="91.0472" gradientUnits="userSpaceOnUse">
<stop stop-color="white"/>
<stop offset="1" stop-color="white" stop-opacity="0.2"/>
</linearGradient>
<linearGradient id="paint3_linear_195_430" x1="79.0801" y1="90.4307" x2="134.117" y2="91.1006" gradientUnits="userSpaceOnUse">
<stop stop-color="white"/>
<stop offset="1" stop-color="white" stop-opacity="0"/>
</linearGradient>
</defs>
</svg>
