<svg width="64" height="64" viewBox="0 0 64 64" fill="none" xmlns="http://www.w3.org/2000/svg">
<path fill-rule="evenodd" clip-rule="evenodd" d="M64 32C64 49.6731 49.6731 64 32 64C14.3269 64 0 49.6731 0 32C0 14.3269 14.3269 0 32 0C49.6731 0 64 14.3269 64 32ZM33.1469 23.6235C30.0344 24.9181 23.8139 27.5975 14.4852 31.6619C12.9704 32.2643 12.1768 32.8536 12.1046 33.4298C11.9825 34.4037 13.2021 34.7871 14.8628 35.3093C15.0887 35.3804 15.3227 35.454 15.5627 35.532C17.1965 36.0631 19.3944 36.6844 20.5369 36.7091C21.5733 36.7315 22.7301 36.3042 24.0072 35.4272C32.7232 29.5437 37.2225 26.5698 37.505 26.5057C37.7043 26.4605 37.9804 26.4036 38.1675 26.5699C38.3546 26.7362 38.3362 27.0512 38.3164 27.1357C38.1956 27.6507 33.4085 32.1013 30.9311 34.4044C30.1588 35.1224 29.611 35.6317 29.499 35.748C29.2482 36.0086 28.9925 36.2551 28.7468 36.492C27.2289 37.9552 26.0906 39.0525 28.8098 40.8444C30.1165 41.7056 31.1622 42.4177 32.2054 43.1281C33.3446 43.9039 34.4809 44.6777 35.9511 45.6415C36.3257 45.887 36.6834 46.142 37.0319 46.3904C38.3577 47.3356 39.5488 48.1848 41.0204 48.0494C41.8755 47.9707 42.7587 47.1666 43.2073 44.7686C44.2674 39.1014 46.3512 26.8222 46.8327 21.7623C46.8749 21.319 46.8219 20.7516 46.7792 20.5025C46.7366 20.2535 46.6475 19.8986 46.3238 19.6359C45.9404 19.3248 45.3485 19.2592 45.0838 19.2639C43.8802 19.2851 42.0336 19.9272 33.1469 23.6235Z" fill="white"/>
</svg>
