<svg width="64" height="53" viewBox="0 0 64 53" fill="none" xmlns="http://www.w3.org/2000/svg">
<path d="M20.1338 53C44.2788 53 57.4888 32.9912 57.4888 15.645C57.4888 15.0825 57.4762 14.5075 57.4512 13.945C60.021 12.0866 62.2387 9.78468 64 7.14746C61.6067 8.21227 59.0657 8.90768 56.4638 9.20996C59.2034 7.56775 61.2548 4.98792 62.2375 1.94871C59.6601 3.47615 56.8415 4.55363 53.9025 5.13496C51.9222 3.03083 49.304 1.63764 46.4525 1.1708C43.601 0.703962 40.6752 1.18947 38.1273 2.55226C35.5794 3.91505 33.5515 6.07921 32.3569 8.71016C31.1624 11.3411 30.8678 14.2923 31.5187 17.1075C26.3 16.8456 21.1945 15.4899 16.5333 13.1283C11.8721 10.7666 7.75918 7.45183 4.46125 3.39871C2.78507 6.28865 2.27215 9.70839 3.02675 12.9629C3.78135 16.2174 5.74683 19.0625 8.52375 20.92C6.43901 20.8538 4.39994 20.2925 2.575 19.2825V19.445C2.57313 22.4777 3.62159 25.4176 5.54216 27.7647C7.46272 30.1119 10.1369 31.7215 13.11 32.32C11.1788 32.8483 9.15195 32.9253 7.18625 32.545C8.02521 35.1532 9.65753 37.4344 11.8554 39.0702C14.0532 40.7061 16.707 41.6149 19.4463 41.67C14.7958 45.323 9.05113 47.3043 3.1375 47.295C2.08877 47.2934 1.04106 47.2291 0 47.1025C6.00762 50.9567 12.9961 53.0037 20.1338 53Z" fill="url(#paint0_linear_33472_100)"/>
<defs>
<linearGradient id="paint0_linear_33472_100" x1="12.5" y1="20" x2="44" y2="45" gradientUnits="userSpaceOnUse">
<stop stop-color="#FF00FF"/>
<stop offset="1" stop-color="#00FFFF"/>
</linearGradient>
</defs>
</svg>
