<svg width="64" height="64" viewBox="0 0 64 64" fill="none" xmlns="http://www.w3.org/2000/svg">
<path d="M20.1338 58C44.2788 58 57.4888 37.9912 57.4888 20.645C57.4888 20.0825 57.4762 19.5075 57.4512 18.945C60.021 17.0866 62.2387 14.7847 64 12.1475C61.6067 13.2123 59.0657 13.9077 56.4638 14.21C59.2034 12.5678 61.2548 9.98792 62.2375 6.94871C59.6601 8.47615 56.8415 9.55363 53.9025 10.135C51.9222 8.03083 49.304 6.63764 46.4525 6.1708C43.601 5.70396 40.6752 6.18947 38.1273 7.55226C35.5794 8.91505 33.5515 11.0792 32.3569 13.7102C31.1624 16.3411 30.8678 19.2923 31.5187 22.1075C26.3 21.8456 21.1945 20.4899 16.5333 18.1283C11.8721 15.7666 7.75918 12.4518 4.46125 8.39871C2.78507 11.2886 2.27215 14.7084 3.02675 17.9629C3.78135 21.2174 5.74683 24.0625 8.52375 25.92C6.43901 25.8538 4.39994 25.2925 2.575 24.2825V24.445C2.57313 27.4777 3.62159 30.4176 5.54216 32.7647C7.46272 35.1119 10.1369 36.7215 13.11 37.32C11.1788 37.8483 9.15195 37.9253 7.18625 37.545C8.02521 40.1532 9.65753 42.4344 11.8554 44.0702C14.0532 45.7061 16.707 46.6149 19.4463 46.67C14.7958 50.323 9.05113 52.3043 3.1375 52.295C2.08877 52.2934 1.04106 52.2291 0 52.1025C6.00762 55.9567 12.9961 58.0037 20.1338 58Z" fill="white"/>
</svg>
